G04 #@! TF.GenerationSoftware,KiCad,Pcbnew,7.0.10-7.0.10~ubuntu22.04.1*
G04 #@! TF.CreationDate,2024-02-08T01:05:10-08:00*
G04 #@! TF.ProjectId,copico,636f7069-636f-42e6-9b69-6361645f7063,0.2.1*
G04 #@! TF.SameCoordinates,Original*
G04 #@! TF.FileFunction,Soldermask,Bot*
G04 #@! TF.FilePolarity,Negative*
%FSLAX46Y46*%
G04 Gerber Fmt 4.6, Leading zero omitted, Abs format (unit mm)*
G04 Created by KiCad (PCBNEW 7.0.10-7.0.10~ubuntu22.04.1) date 2024-02-08 01:05:10*
%MOMM*%
%LPD*%
G01*
G04 APERTURE LIST*
G04 Aperture macros list*
%AMRoundRect*
0 Rectangle with rounded corners*
0 $1 Rounding radius*
0 $2 $3 $4 $5 $6 $7 $8 $9 X,Y pos of 4 corners*
0 Add a 4 corners polygon primitive as box body*
4,1,4,$2,$3,$4,$5,$6,$7,$8,$9,$2,$3,0*
0 Add four circle primitives for the rounded corners*
1,1,$1+$1,$2,$3*
1,1,$1+$1,$4,$5*
1,1,$1+$1,$6,$7*
1,1,$1+$1,$8,$9*
0 Add four rect primitives between the rounded corners*
20,1,$1+$1,$2,$3,$4,$5,0*
20,1,$1+$1,$4,$5,$6,$7,0*
20,1,$1+$1,$6,$7,$8,$9,0*
20,1,$1+$1,$8,$9,$2,$3,0*%
G04 Aperture macros list end*
%ADD10R,6.350000X1.270000*%
%ADD11R,1.600000X1.600000*%
%ADD12C,1.600000*%
%ADD13R,1.700000X1.700000*%
%ADD14O,1.700000X1.700000*%
%ADD15O,1.600000X1.600000*%
%ADD16RoundRect,0.102000X-0.700000X0.700000X-0.700000X-0.700000X0.700000X-0.700000X0.700000X0.700000X0*%
%ADD17C,1.604000*%
%ADD18R,2.400000X1.600000*%
%ADD19O,2.400000X1.600000*%
%ADD20O,1.800000X1.800000*%
%ADD21O,1.500000X1.500000*%
G04 APERTURE END LIST*
D10*
X95250000Y-80010000D03*
X95250000Y-82550000D03*
X95250000Y-85090000D03*
X95250000Y-87630000D03*
X95250000Y-90170000D03*
X95250000Y-92710000D03*
X95250000Y-95250000D03*
X95250000Y-97790000D03*
X95250000Y-100330000D03*
X95250000Y-102870000D03*
X95250000Y-105410000D03*
X95250000Y-107950000D03*
X95250000Y-110490000D03*
X95250000Y-113030000D03*
X95250000Y-115570000D03*
X95250000Y-118110000D03*
X95250000Y-120650000D03*
X95250000Y-123190000D03*
X95250000Y-125730000D03*
X95250000Y-128270000D03*
D11*
X142073000Y-62738000D03*
D12*
X139573000Y-62738000D03*
D13*
X182372000Y-80391000D03*
D14*
X182372000Y-82931000D03*
X182372000Y-85471000D03*
X182372000Y-88011000D03*
X182372000Y-90551000D03*
X182372000Y-93091000D03*
X182372000Y-95631000D03*
X182372000Y-98171000D03*
D12*
X120690000Y-116840000D03*
X125690000Y-116840000D03*
X174244000Y-102743000D03*
X179244000Y-102743000D03*
D13*
X143256000Y-71374000D03*
D14*
X145796000Y-71374000D03*
X143256000Y-73914000D03*
X145796000Y-73914000D03*
X143256000Y-76454000D03*
X145796000Y-76454000D03*
X143256000Y-78994000D03*
X145796000Y-78994000D03*
X143256000Y-81534000D03*
X145796000Y-81534000D03*
X143256000Y-84074000D03*
X145796000Y-84074000D03*
X143256000Y-86614000D03*
X145796000Y-86614000D03*
X143256000Y-89154000D03*
X145796000Y-89154000D03*
D12*
X174204000Y-106680000D03*
X179204000Y-106680000D03*
D13*
X141986000Y-106680000D03*
D14*
X141986000Y-109220000D03*
X141986000Y-111760000D03*
X141986000Y-114300000D03*
X141986000Y-116840000D03*
X141986000Y-119380000D03*
X141986000Y-121920000D03*
X141986000Y-124460000D03*
X141986000Y-127000000D03*
X141986000Y-129540000D03*
X141986000Y-132080000D03*
X141986000Y-134620000D03*
X141986000Y-137160000D03*
X141986000Y-139700000D03*
X141986000Y-142240000D03*
X141986000Y-144780000D03*
D12*
X137302000Y-69048000D03*
X132302000Y-69048000D03*
X124206000Y-83820000D03*
X119206000Y-83820000D03*
X129413000Y-106680000D03*
D15*
X129413000Y-116840000D03*
D12*
X177927000Y-59563000D03*
X177927000Y-64643000D03*
D16*
X166497000Y-62103000D03*
D17*
X166497000Y-64643000D03*
X166497000Y-67183000D03*
X166497000Y-69723000D03*
X166497000Y-72263000D03*
X166497000Y-74803000D03*
X166497000Y-77343000D03*
X166497000Y-79883000D03*
X166497000Y-82423000D03*
X166497000Y-84963000D03*
X174117000Y-84963000D03*
X174117000Y-82423000D03*
X174117000Y-79883000D03*
X174117000Y-77343000D03*
X174117000Y-74803000D03*
X174117000Y-72263000D03*
X174117000Y-69723000D03*
X174117000Y-67183000D03*
X174117000Y-64643000D03*
X174117000Y-62103000D03*
D16*
X116499000Y-120650000D03*
D17*
X116499000Y-123190000D03*
X116499000Y-125730000D03*
X116499000Y-128270000D03*
X116499000Y-130810000D03*
X116499000Y-133350000D03*
X116499000Y-135890000D03*
X116499000Y-138430000D03*
X116499000Y-140970000D03*
X116499000Y-143510000D03*
X124119000Y-143510000D03*
X124119000Y-140970000D03*
X124119000Y-138430000D03*
X124119000Y-135890000D03*
X124119000Y-133350000D03*
X124119000Y-130810000D03*
X124119000Y-128270000D03*
X124119000Y-125730000D03*
X124119000Y-123190000D03*
X124119000Y-120650000D03*
D12*
X180908000Y-59563000D03*
X185908000Y-59563000D03*
D13*
X175387000Y-115189000D03*
D14*
X177927000Y-115189000D03*
X175387000Y-117729000D03*
X177927000Y-117729000D03*
X175387000Y-120269000D03*
X177927000Y-120269000D03*
X175387000Y-122809000D03*
X177927000Y-122809000D03*
X175387000Y-125349000D03*
X177927000Y-125349000D03*
X175387000Y-127889000D03*
X177927000Y-127889000D03*
X175387000Y-130429000D03*
X177927000Y-130429000D03*
X175387000Y-132969000D03*
X177927000Y-132969000D03*
D18*
X128778000Y-125730000D03*
D19*
X128778000Y-128270000D03*
X128778000Y-130810000D03*
X128778000Y-133350000D03*
X128778000Y-135890000D03*
X128778000Y-138430000D03*
X128778000Y-140970000D03*
X128778000Y-143510000D03*
X136398000Y-143510000D03*
X136398000Y-140970000D03*
X136398000Y-138430000D03*
X136398000Y-135890000D03*
X136398000Y-133350000D03*
X136398000Y-130810000D03*
X136398000Y-128270000D03*
X136398000Y-125730000D03*
D16*
X150876000Y-66294000D03*
D17*
X150876000Y-68834000D03*
X150876000Y-71374000D03*
X150876000Y-73914000D03*
X150876000Y-76454000D03*
X150876000Y-78994000D03*
X150876000Y-81534000D03*
X150876000Y-84074000D03*
X150876000Y-86614000D03*
X150876000Y-89154000D03*
X158496000Y-89154000D03*
X158496000Y-86614000D03*
X158496000Y-84074000D03*
X158496000Y-81534000D03*
X158496000Y-78994000D03*
X158496000Y-76454000D03*
X158496000Y-73914000D03*
X158496000Y-71374000D03*
X158496000Y-68834000D03*
X158496000Y-66294000D03*
D18*
X162707000Y-59558000D03*
D19*
X162707000Y-67178000D03*
X162707000Y-69718000D03*
X162707000Y-72258000D03*
X162707000Y-74798000D03*
X162707000Y-77338000D03*
X162707000Y-79878000D03*
X162707000Y-82418000D03*
X162707000Y-84958000D03*
X162707000Y-87498000D03*
X162707000Y-62098000D03*
X177947000Y-87498000D03*
X177947000Y-64638000D03*
X177947000Y-84958000D03*
X177947000Y-82418000D03*
X177947000Y-79878000D03*
X177947000Y-77338000D03*
X177947000Y-74798000D03*
X177947000Y-72258000D03*
X177947000Y-69718000D03*
X177947000Y-67178000D03*
X162707000Y-64638000D03*
X177947000Y-59558000D03*
X177947000Y-62098000D03*
D13*
X187452000Y-80391000D03*
D14*
X187452000Y-82931000D03*
X187452000Y-85471000D03*
X187452000Y-88011000D03*
X187452000Y-90551000D03*
X187452000Y-93091000D03*
X187452000Y-95631000D03*
X187452000Y-98171000D03*
D12*
X158897000Y-58928000D03*
X153897000Y-58928000D03*
D16*
X116546000Y-87503000D03*
D17*
X116546000Y-90043000D03*
X116546000Y-92583000D03*
X116546000Y-95123000D03*
X116546000Y-97663000D03*
X116546000Y-100203000D03*
X116546000Y-102743000D03*
X116546000Y-105283000D03*
X116546000Y-107823000D03*
X116546000Y-110363000D03*
X124166000Y-110363000D03*
X124166000Y-107823000D03*
X124166000Y-105283000D03*
X124166000Y-102743000D03*
X124166000Y-100203000D03*
X124166000Y-97663000D03*
X124166000Y-95123000D03*
X124166000Y-92583000D03*
X124166000Y-90043000D03*
X124166000Y-87503000D03*
D13*
X177800000Y-139319000D03*
D14*
X177800000Y-141859000D03*
X177800000Y-144399000D03*
D12*
X136358000Y-121920000D03*
X131358000Y-121920000D03*
X158857000Y-62484000D03*
X153857000Y-62484000D03*
D13*
X187452000Y-65659000D03*
D14*
X187452000Y-68199000D03*
X187452000Y-70739000D03*
X187452000Y-73279000D03*
D18*
X129667000Y-72390000D03*
D19*
X129667000Y-74930000D03*
X129667000Y-77470000D03*
X129667000Y-80010000D03*
X129667000Y-82550000D03*
X129667000Y-85090000D03*
X129667000Y-87630000D03*
X137287000Y-87630000D03*
X137287000Y-85090000D03*
X137287000Y-82550000D03*
X137287000Y-80010000D03*
X137287000Y-77470000D03*
X137287000Y-74930000D03*
X137287000Y-72390000D03*
D20*
X155858000Y-96650000D03*
D21*
X156158000Y-99680000D03*
X161008000Y-99680000D03*
D20*
X161308000Y-96650000D03*
D14*
X149693000Y-96520000D03*
X149693000Y-99060000D03*
D13*
X149693000Y-101600000D03*
D14*
X149693000Y-104140000D03*
X149693000Y-106680000D03*
X149693000Y-109220000D03*
X149693000Y-111760000D03*
D13*
X149693000Y-114300000D03*
D14*
X149693000Y-116840000D03*
X149693000Y-119380000D03*
X149693000Y-121920000D03*
X149693000Y-124460000D03*
D13*
X149693000Y-127000000D03*
D14*
X149693000Y-129540000D03*
X149693000Y-132080000D03*
X149693000Y-134620000D03*
X149693000Y-137160000D03*
D13*
X149693000Y-139700000D03*
D14*
X149693000Y-142240000D03*
X149693000Y-144780000D03*
X167473000Y-144780000D03*
X167473000Y-142240000D03*
D13*
X167473000Y-139700000D03*
D14*
X167473000Y-137160000D03*
X167473000Y-134620000D03*
X167473000Y-132080000D03*
X167473000Y-129540000D03*
D13*
X167473000Y-127000000D03*
D14*
X167473000Y-124460000D03*
X167473000Y-121920000D03*
X167473000Y-119380000D03*
X167473000Y-116840000D03*
D13*
X167473000Y-114300000D03*
D14*
X167473000Y-111760000D03*
X167473000Y-109220000D03*
X167473000Y-106680000D03*
X167473000Y-104140000D03*
D13*
X167473000Y-101600000D03*
D14*
X167473000Y-99060000D03*
X167473000Y-96520000D03*
X159167100Y-126250000D03*
D13*
X161707100Y-126250000D03*
D14*
X164247100Y-126250000D03*
D13*
X185801000Y-105283000D03*
D14*
X185801000Y-107823000D03*
X185801000Y-110363000D03*
X185801000Y-112903000D03*
X185801000Y-115443000D03*
X185801000Y-117983000D03*
X185801000Y-120523000D03*
X185801000Y-123063000D03*
X185801000Y-125603000D03*
X185801000Y-128143000D03*
X185801000Y-130683000D03*
X185801000Y-133223000D03*
X185801000Y-135763000D03*
X185801000Y-138303000D03*
X185801000Y-140843000D03*
X185801000Y-143383000D03*
D12*
X136398000Y-106680000D03*
D15*
X136398000Y-116840000D03*
G36*
X99382121Y-77660002D02*
G01*
X99428614Y-77713658D01*
X99440000Y-77766000D01*
X99440000Y-130514000D01*
X99419998Y-130582121D01*
X99366342Y-130628614D01*
X99314000Y-130640000D01*
X92695506Y-130640000D01*
X92684524Y-130639521D01*
X92483920Y-130621970D01*
X92462291Y-130618156D01*
X92273123Y-130567469D01*
X92252484Y-130559957D01*
X92074986Y-130477188D01*
X92055966Y-130466206D01*
X91895544Y-130353878D01*
X91878719Y-130339760D01*
X91740239Y-130201280D01*
X91726121Y-130184455D01*
X91613793Y-130024033D01*
X91602811Y-130005013D01*
X91520042Y-129827515D01*
X91512530Y-129806876D01*
X91461843Y-129617708D01*
X91458029Y-129596078D01*
X91440479Y-129395475D01*
X91440000Y-129384494D01*
X91440000Y-78895505D01*
X91440479Y-78884524D01*
X91458029Y-78683921D01*
X91461843Y-78662291D01*
X91512530Y-78473123D01*
X91520042Y-78452484D01*
X91602811Y-78274986D01*
X91613793Y-78255966D01*
X91726121Y-78095544D01*
X91740239Y-78078719D01*
X91878719Y-77940239D01*
X91895544Y-77926121D01*
X92055966Y-77813793D01*
X92074986Y-77802811D01*
X92252484Y-77720042D01*
X92273123Y-77712530D01*
X92462291Y-77661843D01*
X92483921Y-77658029D01*
X92684525Y-77640479D01*
X92695506Y-77640000D01*
X99314000Y-77640000D01*
X99382121Y-77660002D01*
G37*
G36*
X103447121Y-134640002D02*
G01*
X103493614Y-134693658D01*
X103505000Y-134746000D01*
X103505000Y-141885113D01*
X103484998Y-141953234D01*
X103431342Y-141999727D01*
X103361068Y-142009831D01*
X103296488Y-141980337D01*
X103271568Y-141950948D01*
X103153530Y-141758329D01*
X103153522Y-141758318D01*
X103000660Y-141579339D01*
X102821681Y-141426477D01*
X102821679Y-141426476D01*
X102620984Y-141303489D01*
X102403523Y-141213414D01*
X102174651Y-141158467D01*
X101939998Y-141140000D01*
X95148258Y-141140000D01*
X95131812Y-141138922D01*
X95027037Y-141125128D01*
X94995265Y-141116615D01*
X94905326Y-141079361D01*
X94876839Y-141062914D01*
X94799606Y-141003650D01*
X94776349Y-140980393D01*
X94717085Y-140903160D01*
X94700638Y-140874673D01*
X94663384Y-140784734D01*
X94654871Y-140752961D01*
X94641078Y-140648187D01*
X94640000Y-140631742D01*
X94640000Y-135148257D01*
X94641078Y-135131812D01*
X94654871Y-135027038D01*
X94663384Y-134995265D01*
X94700638Y-134905326D01*
X94717085Y-134876839D01*
X94776349Y-134799606D01*
X94799606Y-134776349D01*
X94876839Y-134717085D01*
X94905326Y-134700638D01*
X94995265Y-134663384D01*
X95027038Y-134654871D01*
X95131813Y-134641078D01*
X95148258Y-134640000D01*
X100654054Y-134640000D01*
X100685408Y-134622879D01*
X100712191Y-134620000D01*
X103379000Y-134620000D01*
X103447121Y-134640002D01*
G37*
G36*
X103459454Y-66297916D02*
G01*
X103499108Y-66356807D01*
X103505000Y-66394886D01*
X103505000Y-73534000D01*
X103484998Y-73602121D01*
X103431342Y-73648614D01*
X103379000Y-73660000D01*
X100712191Y-73660000D01*
X100644077Y-73640000D01*
X95148258Y-73640000D01*
X95131812Y-73638922D01*
X95027037Y-73625128D01*
X94995265Y-73616615D01*
X94905326Y-73579361D01*
X94876839Y-73562914D01*
X94799606Y-73503650D01*
X94776349Y-73480393D01*
X94717085Y-73403160D01*
X94700638Y-73374673D01*
X94663384Y-73284734D01*
X94654871Y-73252961D01*
X94641078Y-73148187D01*
X94640000Y-73131742D01*
X94640000Y-67648257D01*
X94641078Y-67631812D01*
X94654871Y-67527038D01*
X94663384Y-67495265D01*
X94700638Y-67405326D01*
X94717085Y-67376839D01*
X94776349Y-67299606D01*
X94799606Y-67276349D01*
X94876839Y-67217085D01*
X94905326Y-67200638D01*
X94995265Y-67163384D01*
X95027038Y-67154871D01*
X95131813Y-67141078D01*
X95148258Y-67140000D01*
X101939998Y-67140000D01*
X102174651Y-67121532D01*
X102403523Y-67066585D01*
X102620984Y-66976510D01*
X102821679Y-66853523D01*
X102821681Y-66853522D01*
X103000660Y-66700660D01*
X103153522Y-66521681D01*
X103153523Y-66521679D01*
X103271567Y-66329051D01*
X103324215Y-66281420D01*
X103394256Y-66269813D01*
X103459454Y-66297916D01*
G37*
M02*
