M48
INCH
T1C0.0197
T2C0.0236
T3C0.0315
T4C0.0354
T5C0.0394
T6C0.0402
%
G90
G05
T1
X3.8908Y-4.5999
X3.8908Y-4.9986
X3.8911Y-3.794
X3.9349Y-4.5104
X3.935Y-4.88
X3.9877Y-3.8092
X4.05Y-2.675
X4.05Y-2.875
X4.05Y-2.975
X4.0756Y-3.4888
X4.0821Y-3.0895
X4.1137Y-2.7179
X4.23Y-3.085
X4.315Y-2.6
X4.3667Y-2.527
X4.3779Y-3.4415
X4.4073Y-2.9965
X4.425Y-4.88
X4.43Y-2.89
X4.4657Y-4.9986
X4.4792Y-3.4338
X4.5215Y-2.9789
X4.5425Y-4.4449
X4.56Y-2.495
X4.56Y-2.56
X4.565Y-2.26
X4.6Y-2.72
X4.6164Y-4.904
X4.6249Y-4.55
X4.6657Y-5.222
X4.6701Y-3.5848
X4.6983Y-5.5934
X4.736Y-3.1111
X4.765Y-2.56
X4.77Y-5.91
X4.7847Y-4.7618
X4.7916Y-3.5363
X4.82Y-2.495
X4.9321Y-3.5818
X4.9406Y-4.1546
X4.9438Y-5.5934
X4.96Y-2.26
X4.963Y-3.1537
X4.9725Y-3.7652
X4.9757Y-3.6538
X4.9811Y-3.2367
X4.986Y-4.4548
X5.0204Y-4.7481
X5.0244Y-4.7066
X5.0419Y-3.6574
X5.0477Y-4.5121
X5.1019Y-4.1245
X5.1335Y-3.8421
X5.14Y-5.3173
X5.1644Y-5.2159
X5.1933Y-5.4271
X5.2195Y-3.098
X5.2354Y-5.5504
X5.2657Y-5.4
X5.2667Y-3.9732
X5.2772Y-3.111
X5.2772Y-3.4986
X5.2939Y-5.0444
X5.3023Y-2.9025
X5.3084Y-4.0967
X5.3114Y-3.3342
X5.3141Y-4.7646
X5.37Y-2.56
X5.3771Y-5.7101
X5.384Y-2.6626
X5.4157Y-5.3
X5.4949Y-4.601
X5.5007Y-5.0517
X5.5233Y-3.4678
X5.5282Y-4.4249
X5.5323Y-4.892
X5.5365Y-5.4545
X5.6241Y-3.7652
X5.7272Y-3.751
X5.7633Y-4.3935
X5.835Y-2.52
X5.8611Y-3.4073
X5.9655Y-3.5907
X6.0031Y-4.2208
X6.0031Y-4.3988
X6.042Y-3.451
X6.0468Y-2.6393
X6.0586Y-2.7218
X6.0905Y-2.7995
X6.1131Y-3.3993
X6.1157Y-3.114
X6.142Y-2.9427
X6.1515Y-4.5026
X6.1608Y-3.5031
X6.175Y-5.305
X6.195Y-4.76
X6.2134Y-4.4179
X6.2171Y-5.1493
X6.2507Y-3.7029
X6.255Y-5.91
X6.32Y-2.395
X6.3351Y-3.6167
X6.405Y-2.235
X6.4098Y-4.8772
X6.437Y-3.8375
X6.46Y-5.3507
X6.497Y-3.854
X6.6238Y-3.4847
X6.625Y-2.705
X6.655Y-2.545
X6.67Y-2.405
X6.7212Y-3.4472
X6.7233Y-3.5325
X6.7343Y-4.7634
X6.74Y-2.815
X6.7422Y-4.6493
X6.7491Y-3.4172
X6.765Y-2.985
X6.775Y-2.365
X6.8019Y-4.1663
X6.8042Y-2.7746
X6.8242Y-3.5969
X6.8339Y-3.5325
X6.8769Y-4.2731
X6.8991Y-2.2403
X6.92Y-2.695
X6.97Y-2.24
X6.9855Y-3.9512
X7.0073Y-3.5639
X7.01Y-5.8408
X7.0117Y-5.3208
X7.0326Y-4.1294
X7.125Y-5.7736
X7.1612Y-4.0711
X7.1617Y-5.7519
X7.195Y-5.91
X7.23Y-2.875
X7.23Y-3.005
X7.2406Y-3.7642
X7.3196Y-2.8955
X7.385Y-2.985
X7.465Y-2.29
X7.495Y-3.2
X7.496Y-5.164
X7.5Y-4.064
T2
X4.02Y-4.75
X4.05Y-5.325
X4.05Y-5.525
X4.305Y-4.75
X4.325Y-5.13
X4.4583Y-4.6784
X4.7072Y-5.0518
X5.2087Y-2.95
X5.2205Y-3.1614
X5.2205Y-3.45
X5.2255Y-4.8315
X5.7591Y-3.9957
X5.8693Y-3.703
X5.9753Y-5.0
X6.3185Y-4.1714
X6.6882Y-3.4917
X6.8721Y-3.9789
X6.8897Y-3.534
X6.9679Y-4.0625
X7.27Y-2.675
T3
X4.6931Y-3.3
X4.7516Y-4.6
X4.89Y-3.3
X4.9484Y-4.6
X5.07Y-4.95
X5.07Y-5.05
X5.07Y-5.15
X5.07Y-5.25
X5.07Y-5.35
X5.07Y-5.45
X5.07Y-5.55
X5.07Y-5.65
X5.095Y-4.2
X5.095Y-4.6
X5.105Y-2.85
X5.105Y-2.95
X5.105Y-3.05
X5.105Y-3.15
X5.105Y-3.25
X5.105Y-3.35
X5.105Y-3.45
X5.1716Y-4.8
X5.2087Y-2.7184
X5.3684Y-4.8
X5.37Y-4.2
X5.37Y-4.6
X5.37Y-4.95
X5.37Y-5.05
X5.37Y-5.15
X5.37Y-5.25
X5.37Y-5.35
X5.37Y-5.45
X5.37Y-5.55
X5.37Y-5.65
X5.405Y-2.85
X5.405Y-2.95
X5.405Y-3.05
X5.405Y-3.15
X5.405Y-3.25
X5.405Y-3.35
X5.405Y-3.45
X5.4056Y-2.7184
X5.495Y-2.47
X5.5934Y-2.47
X6.0574Y-2.46
X6.0589Y-2.32
X6.2542Y-2.46
X6.2558Y-2.32
X6.4058Y-2.3448
X6.4058Y-2.4448
X6.4058Y-2.5448
X6.4058Y-2.6448
X6.4058Y-2.7448
X6.4058Y-2.8448
X6.4058Y-2.9448
X6.4058Y-3.0448
X6.4058Y-3.1448
X6.4058Y-3.2448
X6.4058Y-3.3448
X6.4058Y-3.4448
X6.8584Y-4.2
X6.86Y-4.045
X7.0058Y-2.3448
X7.0058Y-2.4448
X7.0058Y-2.5448
X7.0058Y-2.6448
X7.0058Y-2.7448
X7.0058Y-2.8448
X7.0058Y-2.9448
X7.0058Y-3.0448
X7.0058Y-3.1448
X7.0058Y-3.2448
X7.0058Y-3.3448
X7.0058Y-3.4448
X7.0553Y-4.2
X7.0569Y-4.045
X7.1224Y-2.345
X7.3192Y-2.345
T4
X4.5866Y-4.75
X4.5866Y-4.85
X4.5866Y-4.95
X4.5866Y-5.05
X4.5866Y-5.15
X4.5866Y-5.25
X4.5866Y-5.35
X4.5866Y-5.45
X4.5866Y-5.55
X4.5866Y-5.65
X4.5884Y-3.445
X4.5884Y-3.545
X4.5884Y-3.645
X4.5884Y-3.745
X4.5884Y-3.845
X4.5884Y-3.945
X4.5884Y-4.045
X4.5884Y-4.145
X4.5884Y-4.245
X4.5884Y-4.345
X4.8866Y-4.75
X4.8866Y-4.85
X4.8866Y-4.95
X4.8866Y-5.05
X4.8866Y-5.15
X4.8866Y-5.25
X4.8866Y-5.35
X4.8866Y-5.45
X4.8866Y-5.55
X4.8866Y-5.65
X4.8884Y-3.445
X4.8884Y-3.545
X4.8884Y-3.645
X4.8884Y-3.745
X4.8884Y-3.845
X4.8884Y-3.945
X4.8884Y-4.045
X4.8884Y-4.145
X4.8884Y-4.245
X4.8884Y-4.345
X5.94Y-2.61
X5.94Y-2.71
X5.94Y-2.81
X5.94Y-2.91
X5.94Y-3.01
X5.94Y-3.11
X5.94Y-3.21
X5.94Y-3.31
X5.94Y-3.41
X5.94Y-3.51
X6.24Y-2.61
X6.24Y-2.71
X6.24Y-2.81
X6.24Y-2.91
X6.24Y-3.01
X6.24Y-3.11
X6.24Y-3.21
X6.24Y-3.31
X6.24Y-3.41
X6.24Y-3.51
X6.555Y-2.445
X6.555Y-2.545
X6.555Y-2.645
X6.555Y-2.745
X6.555Y-2.845
X6.555Y-2.945
X6.555Y-3.045
X6.555Y-3.145
X6.555Y-3.245
X6.555Y-3.345
X6.855Y-2.445
X6.855Y-2.545
X6.855Y-2.645
X6.855Y-2.745
X6.855Y-2.845
X6.855Y-2.945
X6.855Y-3.045
X6.855Y-3.145
X6.855Y-3.245
X6.855Y-3.345
T5
X5.59Y-4.2
X5.59Y-4.3
X5.59Y-4.4
X5.59Y-4.5
X5.59Y-4.6
X5.59Y-4.7
X5.59Y-4.8
X5.59Y-4.9
X5.59Y-5.0
X5.59Y-5.1
X5.59Y-5.2
X5.59Y-5.3
X5.59Y-5.4
X5.59Y-5.5
X5.59Y-5.6
X5.59Y-5.7
X5.64Y-2.81
X5.64Y-2.91
X5.64Y-3.01
X5.64Y-3.11
X5.64Y-3.21
X5.64Y-3.31
X5.64Y-3.41
X5.64Y-3.51
X5.74Y-2.81
X5.74Y-2.91
X5.74Y-3.01
X5.74Y-3.11
X5.74Y-3.21
X5.74Y-3.31
X5.74Y-3.41
X5.74Y-3.51
X6.905Y-4.535
X6.905Y-4.635
X6.905Y-4.735
X6.905Y-4.835
X6.905Y-4.935
X6.905Y-5.035
X6.905Y-5.135
X6.905Y-5.235
X7.0Y-5.485
X7.0Y-5.585
X7.0Y-5.685
X7.005Y-4.535
X7.005Y-4.635
X7.005Y-4.735
X7.005Y-4.835
X7.005Y-4.935
X7.005Y-5.035
X7.005Y-5.135
X7.005Y-5.235
X7.18Y-3.165
X7.18Y-3.265
X7.18Y-3.365
X7.18Y-3.465
X7.18Y-3.565
X7.18Y-3.665
X7.18Y-3.765
X7.18Y-3.865
X7.315Y-4.145
X7.315Y-4.245
X7.315Y-4.345
X7.315Y-4.445
X7.315Y-4.545
X7.315Y-4.645
X7.315Y-4.745
X7.315Y-4.845
X7.315Y-4.945
X7.315Y-5.045
X7.315Y-5.145
X7.315Y-5.245
X7.315Y-5.345
X7.315Y-5.445
X7.315Y-5.545
X7.315Y-5.645
X7.38Y-2.585
X7.38Y-2.685
X7.38Y-2.785
X7.38Y-2.885
X7.38Y-3.165
X7.38Y-3.265
X7.38Y-3.365
X7.38Y-3.465
X7.38Y-3.565
X7.38Y-3.665
X7.38Y-3.765
X7.38Y-3.865
T6
X5.8934Y-3.8
X5.8934Y-3.9
X5.8934Y-4.0
X5.8934Y-4.1
X5.8934Y-4.2
X5.8934Y-4.3
X5.8934Y-4.4
X5.8934Y-4.5
X5.8934Y-4.6
X5.8934Y-4.7
X5.8934Y-4.8
X5.8934Y-4.9
X5.8934Y-5.0
X5.8934Y-5.1
X5.8934Y-5.2
X5.8934Y-5.3
X5.8934Y-5.4
X5.8934Y-5.5
X5.8934Y-5.6
X5.8934Y-5.7
X6.2664Y-4.9705
X6.3664Y-4.9705
X6.4664Y-4.9705
X6.5934Y-3.8
X6.5934Y-3.9
X6.5934Y-4.0
X6.5934Y-4.1
X6.5934Y-4.2
X6.5934Y-4.3
X6.5934Y-4.4
X6.5934Y-4.5
X6.5934Y-4.6
X6.5934Y-4.7
X6.5934Y-4.8
X6.5934Y-4.9
X6.5934Y-5.0
X6.5934Y-5.1
X6.5934Y-5.2
X6.5934Y-5.3
X6.5934Y-5.4
X6.5934Y-5.5
X6.5934Y-5.6
X6.5934Y-5.7
M30
