%TF.GenerationSoftware,KiCad,Pcbnew,7.0.11-7.0.11~ubuntu22.04.1*%
%TF.CreationDate,2024-04-01T06:10:19-07:00*%
%TF.ProjectId,copico,636f7069-636f-42e6-9b69-6361645f7063,0.1.24*%
%TF.SameCoordinates,Original*%
%TF.FileFunction,Soldermask,Top*%
%TF.FilePolarity,Negative*%
%FSLAX46Y46*%
G04 Gerber Fmt 4.6, Leading zero omitted, Abs format (unit mm)*
G04 Created by KiCad (PCBNEW 7.0.11-7.0.11~ubuntu22.04.1) date 2024-04-01 06:10:19*
%MOMM*%
%LPD*%
G01*
G04 APERTURE LIST*
G04 Aperture macros list*
%AMRoundRect*
0 Rectangle with rounded corners*
0 $1 Rounding radius*
0 $2 $3 $4 $5 $6 $7 $8 $9 X,Y pos of 4 corners*
0 Add a 4 corners polygon primitive as box body*
4,1,4,$2,$3,$4,$5,$6,$7,$8,$9,$2,$3,0*
0 Add four circle primitives for the rounded corners*
1,1,$1+$1,$2,$3*
1,1,$1+$1,$4,$5*
1,1,$1+$1,$6,$7*
1,1,$1+$1,$8,$9*
0 Add four rect primitives between the rounded corners*
20,1,$1+$1,$2,$3,$4,$5,0*
20,1,$1+$1,$4,$5,$6,$7,0*
20,1,$1+$1,$6,$7,$8,$9,0*
20,1,$1+$1,$8,$9,$2,$3,0*%
G04 Aperture macros list end*
%ADD10C,0.150000*%
%ADD11R,6.350000X1.270000*%
%ADD12R,1.600000X1.600000*%
%ADD13C,1.600000*%
%ADD14R,1.700000X1.700000*%
%ADD15O,1.700000X1.700000*%
%ADD16O,1.600000X1.600000*%
%ADD17RoundRect,0.102000X-0.700000X0.700000X-0.700000X-0.700000X0.700000X-0.700000X0.700000X0.700000X0*%
%ADD18C,1.604000*%
%ADD19R,2.400000X1.600000*%
%ADD20O,2.400000X1.600000*%
%ADD21O,1.800000X1.800000*%
%ADD22O,1.500000X1.500000*%
%ADD23R,3.500000X1.700000*%
G04 APERTURE END LIST*
D10*
X190446819Y-151026190D02*
X189446819Y-151026190D01*
X189446819Y-151026190D02*
X189446819Y-150645238D01*
X189446819Y-150645238D02*
X189494438Y-150550000D01*
X189494438Y-150550000D02*
X189542057Y-150502381D01*
X189542057Y-150502381D02*
X189637295Y-150454762D01*
X189637295Y-150454762D02*
X189780152Y-150454762D01*
X189780152Y-150454762D02*
X189875390Y-150502381D01*
X189875390Y-150502381D02*
X189923009Y-150550000D01*
X189923009Y-150550000D02*
X189970628Y-150645238D01*
X189970628Y-150645238D02*
X189970628Y-151026190D01*
X190351580Y-149454762D02*
X190399200Y-149502381D01*
X190399200Y-149502381D02*
X190446819Y-149645238D01*
X190446819Y-149645238D02*
X190446819Y-149740476D01*
X190446819Y-149740476D02*
X190399200Y-149883333D01*
X190399200Y-149883333D02*
X190303961Y-149978571D01*
X190303961Y-149978571D02*
X190208723Y-150026190D01*
X190208723Y-150026190D02*
X190018247Y-150073809D01*
X190018247Y-150073809D02*
X189875390Y-150073809D01*
X189875390Y-150073809D02*
X189684914Y-150026190D01*
X189684914Y-150026190D02*
X189589676Y-149978571D01*
X189589676Y-149978571D02*
X189494438Y-149883333D01*
X189494438Y-149883333D02*
X189446819Y-149740476D01*
X189446819Y-149740476D02*
X189446819Y-149645238D01*
X189446819Y-149645238D02*
X189494438Y-149502381D01*
X189494438Y-149502381D02*
X189542057Y-149454762D01*
X189923009Y-148692857D02*
X189970628Y-148550000D01*
X189970628Y-148550000D02*
X190018247Y-148502381D01*
X190018247Y-148502381D02*
X190113485Y-148454762D01*
X190113485Y-148454762D02*
X190256342Y-148454762D01*
X190256342Y-148454762D02*
X190351580Y-148502381D01*
X190351580Y-148502381D02*
X190399200Y-148550000D01*
X190399200Y-148550000D02*
X190446819Y-148645238D01*
X190446819Y-148645238D02*
X190446819Y-149026190D01*
X190446819Y-149026190D02*
X189446819Y-149026190D01*
X189446819Y-149026190D02*
X189446819Y-148692857D01*
X189446819Y-148692857D02*
X189494438Y-148597619D01*
X189494438Y-148597619D02*
X189542057Y-148550000D01*
X189542057Y-148550000D02*
X189637295Y-148502381D01*
X189637295Y-148502381D02*
X189732533Y-148502381D01*
X189732533Y-148502381D02*
X189827771Y-148550000D01*
X189827771Y-148550000D02*
X189875390Y-148597619D01*
X189875390Y-148597619D02*
X189923009Y-148692857D01*
X189923009Y-148692857D02*
X189923009Y-149026190D01*
X190446819Y-146692857D02*
X189970628Y-147026190D01*
X190446819Y-147264285D02*
X189446819Y-147264285D01*
X189446819Y-147264285D02*
X189446819Y-146883333D01*
X189446819Y-146883333D02*
X189494438Y-146788095D01*
X189494438Y-146788095D02*
X189542057Y-146740476D01*
X189542057Y-146740476D02*
X189637295Y-146692857D01*
X189637295Y-146692857D02*
X189780152Y-146692857D01*
X189780152Y-146692857D02*
X189875390Y-146740476D01*
X189875390Y-146740476D02*
X189923009Y-146788095D01*
X189923009Y-146788095D02*
X189970628Y-146883333D01*
X189970628Y-146883333D02*
X189970628Y-147264285D01*
X190399200Y-145883333D02*
X190446819Y-145978571D01*
X190446819Y-145978571D02*
X190446819Y-146169047D01*
X190446819Y-146169047D02*
X190399200Y-146264285D01*
X190399200Y-146264285D02*
X190303961Y-146311904D01*
X190303961Y-146311904D02*
X189923009Y-146311904D01*
X189923009Y-146311904D02*
X189827771Y-146264285D01*
X189827771Y-146264285D02*
X189780152Y-146169047D01*
X189780152Y-146169047D02*
X189780152Y-145978571D01*
X189780152Y-145978571D02*
X189827771Y-145883333D01*
X189827771Y-145883333D02*
X189923009Y-145835714D01*
X189923009Y-145835714D02*
X190018247Y-145835714D01*
X190018247Y-145835714D02*
X190113485Y-146311904D01*
X189780152Y-145502380D02*
X190446819Y-145264285D01*
X190446819Y-145264285D02*
X189780152Y-145026190D01*
X189446819Y-143692856D02*
X189446819Y-143597618D01*
X189446819Y-143597618D02*
X189494438Y-143502380D01*
X189494438Y-143502380D02*
X189542057Y-143454761D01*
X189542057Y-143454761D02*
X189637295Y-143407142D01*
X189637295Y-143407142D02*
X189827771Y-143359523D01*
X189827771Y-143359523D02*
X190065866Y-143359523D01*
X190065866Y-143359523D02*
X190256342Y-143407142D01*
X190256342Y-143407142D02*
X190351580Y-143454761D01*
X190351580Y-143454761D02*
X190399200Y-143502380D01*
X190399200Y-143502380D02*
X190446819Y-143597618D01*
X190446819Y-143597618D02*
X190446819Y-143692856D01*
X190446819Y-143692856D02*
X190399200Y-143788094D01*
X190399200Y-143788094D02*
X190351580Y-143835713D01*
X190351580Y-143835713D02*
X190256342Y-143883332D01*
X190256342Y-143883332D02*
X190065866Y-143930951D01*
X190065866Y-143930951D02*
X189827771Y-143930951D01*
X189827771Y-143930951D02*
X189637295Y-143883332D01*
X189637295Y-143883332D02*
X189542057Y-143835713D01*
X189542057Y-143835713D02*
X189494438Y-143788094D01*
X189494438Y-143788094D02*
X189446819Y-143692856D01*
X190351580Y-142930951D02*
X190399200Y-142883332D01*
X190399200Y-142883332D02*
X190446819Y-142930951D01*
X190446819Y-142930951D02*
X190399200Y-142978570D01*
X190399200Y-142978570D02*
X190351580Y-142930951D01*
X190351580Y-142930951D02*
X190446819Y-142930951D01*
X190446819Y-141930952D02*
X190446819Y-142502380D01*
X190446819Y-142216666D02*
X189446819Y-142216666D01*
X189446819Y-142216666D02*
X189589676Y-142311904D01*
X189589676Y-142311904D02*
X189684914Y-142407142D01*
X189684914Y-142407142D02*
X189732533Y-142502380D01*
X190446819Y-141073809D02*
X189923009Y-141073809D01*
X189923009Y-141073809D02*
X189827771Y-141121428D01*
X189827771Y-141121428D02*
X189780152Y-141216666D01*
X189780152Y-141216666D02*
X189780152Y-141407142D01*
X189780152Y-141407142D02*
X189827771Y-141502380D01*
X190399200Y-141073809D02*
X190446819Y-141169047D01*
X190446819Y-141169047D02*
X190446819Y-141407142D01*
X190446819Y-141407142D02*
X190399200Y-141502380D01*
X190399200Y-141502380D02*
X190303961Y-141549999D01*
X190303961Y-141549999D02*
X190208723Y-141549999D01*
X190208723Y-141549999D02*
X190113485Y-141502380D01*
X190113485Y-141502380D02*
X190065866Y-141407142D01*
X190065866Y-141407142D02*
X190065866Y-141169047D01*
X190065866Y-141169047D02*
X190018247Y-141073809D01*
%TO.C,G\u002A\u002A\u002A*%
G36*
X187359202Y-148043709D02*
G01*
X187402850Y-148081312D01*
X187430762Y-148133408D01*
X187441548Y-148195854D01*
X187433814Y-148264504D01*
X187433615Y-148265303D01*
X187411578Y-148319702D01*
X187379519Y-148357302D01*
X187341362Y-148377386D01*
X187301036Y-148379242D01*
X187262467Y-148362156D01*
X187229583Y-148325412D01*
X187218613Y-148304404D01*
X187203488Y-148251605D01*
X187201842Y-148197441D01*
X187211712Y-148145546D01*
X187231139Y-148099559D01*
X187258160Y-148063114D01*
X187290816Y-148039848D01*
X187327145Y-148033396D01*
X187359202Y-148043709D01*
G37*
G36*
X184727694Y-147838065D02*
G01*
X184776661Y-147846542D01*
X184809486Y-147860306D01*
X184813070Y-147863175D01*
X184829797Y-147892301D01*
X184833198Y-147930443D01*
X184823221Y-147967201D01*
X184813664Y-147981300D01*
X184788545Y-147997461D01*
X184746388Y-148012118D01*
X184716808Y-148018916D01*
X184597739Y-148051446D01*
X184489844Y-148099955D01*
X184395118Y-148162595D01*
X184315555Y-148237514D01*
X184253149Y-148322863D01*
X184209895Y-148416790D01*
X184188787Y-148508745D01*
X184178814Y-148568588D01*
X184164697Y-148610110D01*
X184143743Y-148638463D01*
X184113259Y-148658799D01*
X184109381Y-148660686D01*
X184062092Y-148677135D01*
X184026300Y-148674786D01*
X184000173Y-148652467D01*
X183981880Y-148609003D01*
X183974211Y-148574060D01*
X183967806Y-148471940D01*
X183982867Y-148369586D01*
X184017496Y-148269426D01*
X184069793Y-148173888D01*
X184137856Y-148085402D01*
X184219787Y-148006395D01*
X184313685Y-147939295D01*
X184417651Y-147886532D01*
X184529784Y-147850533D01*
X184542512Y-147847706D01*
X184604763Y-147838312D01*
X184668443Y-147835210D01*
X184727694Y-147838065D01*
G37*
G36*
X188199744Y-146564035D02*
G01*
X188274272Y-146598175D01*
X188350288Y-146650237D01*
X188407570Y-146701298D01*
X188477753Y-146782703D01*
X188526893Y-146866987D01*
X188554429Y-146952474D01*
X188559799Y-147037489D01*
X188545188Y-147112301D01*
X188512145Y-147184534D01*
X188465973Y-147243095D01*
X188419432Y-147278335D01*
X188361512Y-147298411D01*
X188292154Y-147302505D01*
X188215937Y-147291851D01*
X188182032Y-147281413D01*
X188137444Y-147267685D01*
X188061255Y-147231243D01*
X187991951Y-147183760D01*
X187959267Y-147154228D01*
X187899016Y-147080873D01*
X187861809Y-147003916D01*
X187855091Y-146966008D01*
X188048658Y-146966008D01*
X188052534Y-147028568D01*
X188077182Y-147080254D01*
X188123071Y-147121996D01*
X188129668Y-147126162D01*
X188182032Y-147146940D01*
X188231650Y-147144841D01*
X188276839Y-147120485D01*
X188315918Y-147074487D01*
X188327873Y-147053329D01*
X188358001Y-146975412D01*
X188365590Y-146903674D01*
X188350662Y-146837650D01*
X188339403Y-146814518D01*
X188309709Y-146777340D01*
X188269701Y-146746915D01*
X188227765Y-146728887D01*
X188208314Y-146726284D01*
X188168417Y-146737380D01*
X188130251Y-146768048D01*
X188096434Y-146814357D01*
X188069582Y-146872378D01*
X188052315Y-146938181D01*
X188048658Y-146966008D01*
X187855091Y-146966008D01*
X187847264Y-146921840D01*
X187854999Y-146833133D01*
X187866715Y-146787090D01*
X187900394Y-146704612D01*
X187946353Y-146634455D01*
X188001221Y-146581624D01*
X188008538Y-146576488D01*
X188064532Y-146552458D01*
X188129049Y-146548552D01*
X188199744Y-146564035D01*
G37*
G36*
X184767633Y-147283872D02*
G01*
X184847487Y-147297748D01*
X184893037Y-147309421D01*
X184921925Y-147321271D01*
X184940769Y-147336813D01*
X184952658Y-147353604D01*
X184972168Y-147400985D01*
X184970052Y-147446335D01*
X184967194Y-147455358D01*
X184948249Y-147482353D01*
X184913316Y-147497619D01*
X184859963Y-147502395D01*
X184783506Y-147506476D01*
X184693327Y-147517760D01*
X184597577Y-147534809D01*
X184504408Y-147556183D01*
X184426666Y-147578868D01*
X184265143Y-147641929D01*
X184119587Y-147717806D01*
X183990898Y-147805463D01*
X183879976Y-147903865D01*
X183787721Y-148011978D01*
X183715035Y-148128767D01*
X183662817Y-148253196D01*
X183631968Y-148384231D01*
X183623213Y-148502255D01*
X183620989Y-148564037D01*
X183613147Y-148607688D01*
X183597551Y-148638338D01*
X183572067Y-148661113D01*
X183552354Y-148672509D01*
X183504182Y-148688503D01*
X183463836Y-148683137D01*
X183439654Y-148665297D01*
X183431201Y-148653846D01*
X183425184Y-148638627D01*
X183421210Y-148615812D01*
X183418886Y-148581572D01*
X183417820Y-148532077D01*
X183417618Y-148463501D01*
X183417640Y-148450691D01*
X183417991Y-148378760D01*
X183419185Y-148324813D01*
X183421934Y-148283317D01*
X183426954Y-148248737D01*
X183434958Y-148215539D01*
X183446661Y-148178190D01*
X183456559Y-148149154D01*
X183501229Y-148035691D01*
X183553881Y-147935164D01*
X183620058Y-147837479D01*
X183646628Y-147803116D01*
X183758077Y-147681502D01*
X183888177Y-147573103D01*
X184035605Y-147478724D01*
X184199038Y-147399165D01*
X184377152Y-147335230D01*
X184453799Y-147313800D01*
X184568230Y-147289497D01*
X184670702Y-147279608D01*
X184767633Y-147283872D01*
G37*
G36*
X188031122Y-149335031D02*
G01*
X188034842Y-149335787D01*
X188111825Y-149361012D01*
X188171398Y-149400962D01*
X188214296Y-149456590D01*
X188241250Y-149528848D01*
X188252994Y-149618687D01*
X188253010Y-149619062D01*
X188254339Y-149672094D01*
X188251958Y-149710030D01*
X188244619Y-149741166D01*
X188231079Y-149773795D01*
X188229167Y-149777812D01*
X188182499Y-149849364D01*
X188116236Y-149913258D01*
X188033773Y-149966796D01*
X187941998Y-150006117D01*
X187900090Y-150015705D01*
X187852303Y-150026639D01*
X187771217Y-150025759D01*
X187699841Y-150003989D01*
X187639280Y-149961843D01*
X187590636Y-149899833D01*
X187557928Y-149827378D01*
X187546068Y-149774163D01*
X187540090Y-149708171D01*
X187540174Y-149665261D01*
X187753082Y-149665261D01*
X187762722Y-149737182D01*
X187781419Y-149797926D01*
X187807485Y-149843318D01*
X187834615Y-149866948D01*
X187862109Y-149874120D01*
X187900090Y-149875493D01*
X187912442Y-149874504D01*
X187966813Y-149857376D01*
X188011267Y-149822154D01*
X188040314Y-149773639D01*
X188044828Y-149758777D01*
X188050331Y-149704695D01*
X188045291Y-149641237D01*
X188030959Y-149579375D01*
X188021550Y-149554386D01*
X187994139Y-149505261D01*
X187961824Y-149476300D01*
X187920025Y-149464151D01*
X187897034Y-149463274D01*
X187838364Y-149472120D01*
X187795299Y-149497184D01*
X187767261Y-149539275D01*
X187753673Y-149599206D01*
X187753082Y-149665261D01*
X187540174Y-149665261D01*
X187540224Y-149639458D01*
X187546702Y-149578077D01*
X187551679Y-149555772D01*
X187573363Y-149509966D01*
X187610842Y-149461583D01*
X187658106Y-149416860D01*
X187709148Y-149382036D01*
X187727852Y-149372881D01*
X187800250Y-149348965D01*
X187881139Y-149333935D01*
X187961202Y-149328915D01*
X188031122Y-149335031D01*
G37*
G36*
X188076610Y-148084267D02*
G01*
X188120839Y-148092573D01*
X188163432Y-148103126D01*
X188173280Y-148106130D01*
X188195184Y-148114972D01*
X188209019Y-148127284D01*
X188215783Y-148147464D01*
X188216471Y-148179910D01*
X188212081Y-148229023D01*
X188208333Y-148260867D01*
X188201471Y-148314974D01*
X188193927Y-148371000D01*
X188188649Y-148407858D01*
X188178974Y-148472534D01*
X188092984Y-148470101D01*
X188037970Y-148466720D01*
X188002610Y-148458497D01*
X187983134Y-148442701D01*
X187975773Y-148416602D01*
X187976142Y-148385457D01*
X187979845Y-148331926D01*
X187864902Y-148315829D01*
X187814222Y-148309522D01*
X187771497Y-148305663D01*
X187742605Y-148304708D01*
X187734362Y-148305716D01*
X187724066Y-148320557D01*
X187715459Y-148353119D01*
X187711795Y-148379256D01*
X187705496Y-148417685D01*
X187696512Y-148446380D01*
X187689463Y-148456711D01*
X187666581Y-148461447D01*
X187624834Y-148460098D01*
X187568011Y-148452897D01*
X187535933Y-148447325D01*
X187517848Y-148442436D01*
X187508181Y-148432378D01*
X187504305Y-148411046D01*
X187503595Y-148372333D01*
X187503595Y-148372126D01*
X187505356Y-148321299D01*
X187510087Y-148267415D01*
X187516961Y-148215641D01*
X187525152Y-148171144D01*
X187533833Y-148139093D01*
X187542177Y-148124653D01*
X187543242Y-148124334D01*
X187562078Y-148123779D01*
X187588013Y-148125664D01*
X187624433Y-148130482D01*
X187674720Y-148138726D01*
X187742258Y-148150892D01*
X187802352Y-148162145D01*
X187874554Y-148175718D01*
X187927007Y-148184540D01*
X187963116Y-148187979D01*
X187986289Y-148185401D01*
X187999930Y-148176173D01*
X188007446Y-148159659D01*
X188012244Y-148135228D01*
X188014223Y-148122731D01*
X188021691Y-148076032D01*
X188076610Y-148084267D01*
G37*
G36*
X184767825Y-146716627D02*
G01*
X184801265Y-146724299D01*
X184829424Y-146739800D01*
X184858297Y-146764589D01*
X184861520Y-146767699D01*
X184893785Y-146807713D01*
X184903914Y-146843058D01*
X184891771Y-146872810D01*
X184878692Y-146884347D01*
X184831605Y-146910609D01*
X184761418Y-146939669D01*
X184668370Y-146971447D01*
X184552703Y-147005859D01*
X184414657Y-147042825D01*
X184410797Y-147043813D01*
X184328619Y-147065409D01*
X184248224Y-147087604D01*
X184174413Y-147108993D01*
X184111988Y-147128170D01*
X184065748Y-147143729D01*
X184053193Y-147148492D01*
X183991017Y-147177727D01*
X183916809Y-147219570D01*
X183835760Y-147270612D01*
X183753059Y-147327446D01*
X183673898Y-147386663D01*
X183608257Y-147440666D01*
X183475285Y-147569298D01*
X183356183Y-147710737D01*
X183252423Y-147862213D01*
X183165475Y-148020954D01*
X183096812Y-148184189D01*
X183047906Y-148349145D01*
X183020227Y-148513053D01*
X183016722Y-148554658D01*
X183012268Y-148606084D01*
X183006453Y-148651751D01*
X183000291Y-148684196D01*
X182998092Y-148691448D01*
X182974044Y-148725319D01*
X182936750Y-148745716D01*
X182892942Y-148751579D01*
X182849353Y-148741845D01*
X182816996Y-148720013D01*
X182800512Y-148699847D01*
X182791754Y-148676199D01*
X182788481Y-148641069D01*
X182788201Y-148617119D01*
X182791908Y-148543167D01*
X182802057Y-148455097D01*
X182817370Y-148361009D01*
X182836570Y-148269000D01*
X182853355Y-148204121D01*
X182914882Y-148028802D01*
X182997761Y-147854732D01*
X183099926Y-147685324D01*
X183219308Y-147523991D01*
X183353842Y-147374145D01*
X183359528Y-147368420D01*
X183441228Y-147289842D01*
X183520286Y-147221665D01*
X183603802Y-147158306D01*
X183698874Y-147094182D01*
X183746542Y-147064072D01*
X183927697Y-146958353D01*
X184099363Y-146872586D01*
X184263341Y-146806092D01*
X184421432Y-146758191D01*
X184575436Y-146728203D01*
X184661128Y-146718938D01*
X184723111Y-146715327D01*
X184767825Y-146716627D01*
G37*
G36*
X188236835Y-149918342D02*
G01*
X188256096Y-149931742D01*
X188280986Y-149955012D01*
X188336387Y-150023792D01*
X188378916Y-150107801D01*
X188407437Y-150201888D01*
X188420815Y-150300902D01*
X188417914Y-150399691D01*
X188398808Y-150489379D01*
X188359854Y-150582476D01*
X188303547Y-150669309D01*
X188238857Y-150742787D01*
X188148013Y-150824242D01*
X188056680Y-150885296D01*
X187966237Y-150925673D01*
X187878064Y-150945096D01*
X187793541Y-150943289D01*
X187714047Y-150919977D01*
X187640963Y-150874882D01*
X187629063Y-150864843D01*
X187576536Y-150810660D01*
X187532595Y-150746586D01*
X187494274Y-150667679D01*
X187467198Y-150595080D01*
X187447786Y-150533424D01*
X187436092Y-150482353D01*
X187430228Y-150430985D01*
X187428328Y-150371038D01*
X187429252Y-150304529D01*
X187435091Y-150257397D01*
X187448300Y-150225630D01*
X187471333Y-150205214D01*
X187506641Y-150192138D01*
X187542189Y-150184816D01*
X187607533Y-150175885D01*
X187668221Y-150172060D01*
X187719482Y-150173263D01*
X187756543Y-150179420D01*
X187773300Y-150188472D01*
X187780994Y-150209979D01*
X187784034Y-150244847D01*
X187783559Y-150261542D01*
X187780140Y-150295835D01*
X187772564Y-150313720D01*
X187756199Y-150322304D01*
X187741792Y-150325631D01*
X187701311Y-150339030D01*
X187676060Y-150361635D01*
X187664788Y-150396611D01*
X187666245Y-150447124D01*
X187674623Y-150495607D01*
X187701135Y-150584859D01*
X187738703Y-150655519D01*
X187786057Y-150706767D01*
X187841928Y-150737784D01*
X187905049Y-150747752D01*
X187974149Y-150735849D01*
X188018433Y-150717631D01*
X188079421Y-150677904D01*
X188134639Y-150624826D01*
X188178261Y-150564959D01*
X188203155Y-150509489D01*
X188217998Y-150438439D01*
X188217944Y-150369116D01*
X188202747Y-150292900D01*
X188196365Y-150271146D01*
X188178866Y-150222731D01*
X188157334Y-150184314D01*
X188125701Y-150146126D01*
X188106388Y-150126247D01*
X188040955Y-150060814D01*
X188106726Y-150001043D01*
X188143305Y-149969299D01*
X188177369Y-149942281D01*
X188201863Y-149925568D01*
X188202847Y-149925029D01*
X188221342Y-149916970D01*
X188236835Y-149918342D01*
G37*
G36*
X187605100Y-147016342D02*
G01*
X187638709Y-147037329D01*
X187679731Y-147067683D01*
X187723709Y-147103620D01*
X187766191Y-147141359D01*
X187802721Y-147177115D01*
X187828845Y-147207105D01*
X187839860Y-147226351D01*
X187838384Y-147255505D01*
X187825561Y-147289687D01*
X187806280Y-147318625D01*
X187790130Y-147330860D01*
X187771465Y-147328158D01*
X187746826Y-147313849D01*
X187746495Y-147313590D01*
X187708039Y-147293963D01*
X187671370Y-147293965D01*
X187642017Y-147313411D01*
X187639146Y-147317187D01*
X187621362Y-147351311D01*
X187603424Y-147400008D01*
X187587891Y-147454486D01*
X187577321Y-147505957D01*
X187574151Y-147540487D01*
X187584975Y-147619929D01*
X187615765Y-147690142D01*
X187663996Y-147748772D01*
X187727144Y-147793469D01*
X187802684Y-147821879D01*
X187886680Y-147831654D01*
X187952877Y-147823435D01*
X188012106Y-147800673D01*
X188057028Y-147766215D01*
X188057850Y-147765290D01*
X188074726Y-147741914D01*
X188095460Y-147707722D01*
X188104854Y-147690543D01*
X188118326Y-147661662D01*
X188126449Y-147633196D01*
X188130340Y-147598068D01*
X188131115Y-147549202D01*
X188130831Y-147525914D01*
X188129611Y-147473535D01*
X188127873Y-147427197D01*
X188125910Y-147393959D01*
X188124984Y-147384802D01*
X188124042Y-147367822D01*
X188130929Y-147359429D01*
X188151125Y-147357097D01*
X188183111Y-147358004D01*
X188229848Y-147362084D01*
X188275603Y-147369365D01*
X188291422Y-147373032D01*
X188323245Y-147384889D01*
X188340458Y-147403482D01*
X188349734Y-147429229D01*
X188357149Y-147473555D01*
X188360284Y-147531194D01*
X188359135Y-147592330D01*
X188353699Y-147647151D01*
X188349830Y-147667241D01*
X188316206Y-147764768D01*
X188266263Y-147845921D01*
X188201231Y-147909988D01*
X188122337Y-147956254D01*
X188030811Y-147984007D01*
X187927879Y-147992533D01*
X187814771Y-147981120D01*
X187810623Y-147980347D01*
X187692775Y-147948722D01*
X187592697Y-147901879D01*
X187510530Y-147839949D01*
X187446412Y-147763063D01*
X187400484Y-147671353D01*
X187373936Y-147571246D01*
X187367975Y-147485323D01*
X187376119Y-147389099D01*
X187397020Y-147290002D01*
X187429329Y-147195458D01*
X187450384Y-147150187D01*
X187471172Y-147117165D01*
X187499367Y-147081354D01*
X187530092Y-147047952D01*
X187558472Y-147022152D01*
X187579630Y-147009149D01*
X187583358Y-147008506D01*
X187605100Y-147016342D01*
G37*
G36*
X187600442Y-148504152D02*
G01*
X187651163Y-148528621D01*
X187702784Y-148569020D01*
X187748617Y-148619021D01*
X187781972Y-148672294D01*
X187784821Y-148678611D01*
X187799018Y-148722299D01*
X187812060Y-148781019D01*
X187822655Y-148846286D01*
X187829510Y-148909612D01*
X187831335Y-148962513D01*
X187830434Y-148978182D01*
X187831164Y-149003949D01*
X187843625Y-149015041D01*
X187854973Y-149017419D01*
X187886735Y-149018034D01*
X187922102Y-149014038D01*
X187961233Y-149006697D01*
X187964659Y-148916004D01*
X187968086Y-148825312D01*
X188064114Y-148821912D01*
X188160143Y-148818513D01*
X188166640Y-148892468D01*
X188169961Y-148935423D01*
X188173827Y-148993357D01*
X188177693Y-149057756D01*
X188180232Y-149104563D01*
X188187327Y-149242703D01*
X188155372Y-149254853D01*
X188125615Y-149262909D01*
X188083710Y-149270485D01*
X188055401Y-149274111D01*
X187987386Y-149281220D01*
X187979760Y-149235534D01*
X187972324Y-149195123D01*
X187964837Y-149173193D01*
X187953864Y-149164954D01*
X187935971Y-149165613D01*
X187930316Y-149166554D01*
X187908384Y-149169670D01*
X187867469Y-149174853D01*
X187811964Y-149181569D01*
X187746260Y-149189287D01*
X187679984Y-149196882D01*
X187610900Y-149204910D01*
X187549999Y-149212378D01*
X187501088Y-149218787D01*
X187467974Y-149223638D01*
X187454484Y-149226419D01*
X187451991Y-149239782D01*
X187456481Y-149265884D01*
X187457424Y-149269305D01*
X187467819Y-149314157D01*
X187466432Y-149342833D01*
X187451431Y-149360468D01*
X187421280Y-149372083D01*
X187420983Y-149372197D01*
X187420664Y-149372283D01*
X187377317Y-149379680D01*
X187329332Y-149381992D01*
X187318462Y-149381556D01*
X187263913Y-149377997D01*
X187243082Y-149295682D01*
X187216245Y-149162882D01*
X187204023Y-149042858D01*
X187421280Y-149042858D01*
X187484231Y-149042858D01*
X187533178Y-149041497D01*
X187589247Y-149038019D01*
X187619463Y-149035303D01*
X187691743Y-149027748D01*
X187691678Y-148938289D01*
X187689909Y-148887193D01*
X187685330Y-148838686D01*
X187678925Y-148803140D01*
X187678810Y-148802720D01*
X187654290Y-148748331D01*
X187617051Y-148710394D01*
X187570174Y-148691624D01*
X187551002Y-148690080D01*
X187505022Y-148697719D01*
X187469840Y-148721555D01*
X187444739Y-148762968D01*
X187429004Y-148823338D01*
X187421919Y-148904043D01*
X187421346Y-148939965D01*
X187421280Y-149042858D01*
X187204023Y-149042858D01*
X187203033Y-149033137D01*
X187203320Y-148910054D01*
X187216982Y-148797238D01*
X187243894Y-148698298D01*
X187265407Y-148648923D01*
X187312757Y-148579179D01*
X187372206Y-148528868D01*
X187441511Y-148498960D01*
X187518426Y-148490424D01*
X187600442Y-148504152D01*
G37*
G36*
X187458051Y-145899213D02*
G01*
X187450057Y-145915850D01*
X187433944Y-145937271D01*
X187400896Y-145983530D01*
X187372308Y-146034375D01*
X187347472Y-146092426D01*
X187325681Y-146160307D01*
X187306228Y-146240638D01*
X187288404Y-146336042D01*
X187271501Y-146449141D01*
X187254814Y-146582556D01*
X187251137Y-146614571D01*
X187226466Y-146830341D01*
X187203742Y-147024470D01*
X187182676Y-147198727D01*
X187162978Y-147354883D01*
X187144358Y-147494707D01*
X187126525Y-147619971D01*
X187109190Y-147732445D01*
X187092063Y-147833898D01*
X187074853Y-147926100D01*
X187057271Y-148010823D01*
X187039027Y-148089836D01*
X187019830Y-148164909D01*
X186999390Y-148237812D01*
X186977418Y-148310316D01*
X186968872Y-148337302D01*
X186936225Y-148445838D01*
X186913617Y-148537103D01*
X186900387Y-148614771D01*
X186895875Y-148682515D01*
X186898011Y-148731135D01*
X186903413Y-148772686D01*
X186913003Y-148826297D01*
X186927203Y-148893812D01*
X186946432Y-148977074D01*
X186971114Y-149077926D01*
X187001667Y-149198212D01*
X187026963Y-149295682D01*
X187044262Y-149364721D01*
X187060739Y-149436831D01*
X187076677Y-149513886D01*
X187092355Y-149597761D01*
X187108055Y-149690331D01*
X187124059Y-149793472D01*
X187140646Y-149909058D01*
X187158098Y-150038964D01*
X187176696Y-150185065D01*
X187196720Y-150349237D01*
X187218454Y-150533354D01*
X187238463Y-150706793D01*
X187255275Y-150849657D01*
X187270803Y-150971417D01*
X187285609Y-151074419D01*
X187300250Y-151161005D01*
X187315286Y-151233518D01*
X187331276Y-151294303D01*
X187348780Y-151345702D01*
X187368356Y-151390060D01*
X187390564Y-151429719D01*
X187415963Y-151467024D01*
X187421690Y-151474693D01*
X187445438Y-151506714D01*
X187462232Y-151530592D01*
X187468317Y-151540896D01*
X187457907Y-151540822D01*
X187430696Y-151536132D01*
X187395000Y-151528391D01*
X187276122Y-151489038D01*
X187160053Y-151427937D01*
X187048959Y-151346851D01*
X187012510Y-151312029D01*
X186945007Y-151247540D01*
X186850363Y-151131768D01*
X186784940Y-151032092D01*
X186730234Y-150929962D01*
X186675280Y-150808463D01*
X186621504Y-150671685D01*
X186570335Y-150523717D01*
X186523200Y-150368648D01*
X186481527Y-150210569D01*
X186451372Y-150076445D01*
X186430545Y-149975263D01*
X186269269Y-150293991D01*
X186220193Y-150390777D01*
X186166661Y-150496001D01*
X186111800Y-150603541D01*
X186058735Y-150707276D01*
X186010594Y-150801084D01*
X185977378Y-150865543D01*
X185936752Y-150944972D01*
X185896233Y-151025616D01*
X185858279Y-151102475D01*
X185825352Y-151170552D01*
X185799909Y-151224844D01*
X185792266Y-151241840D01*
X185769647Y-151291977D01*
X185749594Y-151334404D01*
X185734437Y-151364313D01*
X185726960Y-151376501D01*
X185712675Y-151375545D01*
X185687428Y-151358064D01*
X185653948Y-151326655D01*
X185614965Y-151283915D01*
X185573208Y-151232441D01*
X185566934Y-151224206D01*
X185508587Y-151132726D01*
X185488397Y-151101071D01*
X185428099Y-150964797D01*
X185386023Y-150817076D01*
X185362154Y-150659598D01*
X185359300Y-150576382D01*
X185441813Y-150576382D01*
X185462004Y-150749228D01*
X185481096Y-150836512D01*
X185492485Y-150879694D01*
X185501935Y-150913055D01*
X185507807Y-150930891D01*
X185508587Y-150932325D01*
X185510463Y-150922709D01*
X185512963Y-150893550D01*
X185515819Y-150848808D01*
X185518761Y-150792441D01*
X185520148Y-150761909D01*
X185535595Y-150547988D01*
X185563119Y-150351128D01*
X185603539Y-150167739D01*
X185657672Y-149994236D01*
X185726333Y-149827029D01*
X185739414Y-149799171D01*
X185786489Y-149713136D01*
X186501076Y-149713136D01*
X186506487Y-149860058D01*
X186521883Y-150016188D01*
X186546165Y-150176052D01*
X186578232Y-150334181D01*
X186616983Y-150485102D01*
X186661320Y-150623342D01*
X186706810Y-150736191D01*
X186724711Y-150775619D01*
X186746933Y-150824766D01*
X186765219Y-150865338D01*
X186795178Y-150924632D01*
X186833511Y-150989937D01*
X186876038Y-151054977D01*
X186918579Y-151113478D01*
X186956956Y-151159162D01*
X186968970Y-151171284D01*
X187012510Y-151212441D01*
X186957233Y-151130923D01*
X186925195Y-151080489D01*
X186889927Y-151020028D01*
X186857996Y-150960895D01*
X186851804Y-150948655D01*
X186772747Y-150774699D01*
X186706271Y-150594581D01*
X186650994Y-150403786D01*
X186605532Y-150197798D01*
X186583827Y-150074016D01*
X186574526Y-150012341D01*
X186567584Y-149955363D01*
X186562680Y-149897828D01*
X186559497Y-149834481D01*
X186557717Y-149760066D01*
X186557021Y-149669328D01*
X186556975Y-149630821D01*
X186557696Y-149518171D01*
X186559865Y-149428887D01*
X186563485Y-149362859D01*
X186568562Y-149319979D01*
X186571355Y-149308103D01*
X186580816Y-149273241D01*
X186581818Y-149259160D01*
X186578533Y-149262349D01*
X186575587Y-149265209D01*
X186573910Y-149268707D01*
X186563349Y-149290736D01*
X186552514Y-149318107D01*
X186533456Y-149378713D01*
X186530963Y-149386641D01*
X186515692Y-149462244D01*
X186506105Y-149549501D01*
X186501605Y-149652994D01*
X186501076Y-149713136D01*
X185786489Y-149713136D01*
X185838048Y-149618905D01*
X185955976Y-149450751D01*
X186093711Y-149294134D01*
X186251764Y-149148479D01*
X186430647Y-149013213D01*
X186454081Y-148997287D01*
X186489215Y-148973337D01*
X186515204Y-148954965D01*
X186527257Y-148945573D01*
X186527576Y-148945095D01*
X186517158Y-148944362D01*
X186490995Y-148945865D01*
X186478476Y-148946965D01*
X186427729Y-148959891D01*
X186364922Y-148988812D01*
X186292828Y-149031473D01*
X186214220Y-149085619D01*
X186131872Y-149148996D01*
X186048558Y-149219349D01*
X185967051Y-149294423D01*
X185890124Y-149371963D01*
X185820552Y-149449713D01*
X185761108Y-149525420D01*
X185753035Y-149536747D01*
X185652209Y-149698295D01*
X185570294Y-149867740D01*
X185507794Y-150042677D01*
X185465212Y-150220700D01*
X185443050Y-150399404D01*
X185441813Y-150576382D01*
X185359300Y-150576382D01*
X185356477Y-150494056D01*
X185368975Y-150322140D01*
X185399632Y-150145540D01*
X185448434Y-149965949D01*
X185515364Y-149785056D01*
X185581672Y-149641095D01*
X185614590Y-149576895D01*
X185645628Y-149520322D01*
X185676886Y-149468880D01*
X185710462Y-149420074D01*
X185748453Y-149371409D01*
X185792960Y-149320391D01*
X185846079Y-149264524D01*
X185909909Y-149201315D01*
X185986549Y-149128268D01*
X186078097Y-149042888D01*
X186108424Y-149014827D01*
X186158319Y-148967516D01*
X186197680Y-148927757D01*
X186224419Y-148897810D01*
X186236445Y-148879936D01*
X186236427Y-148876357D01*
X186219332Y-148869701D01*
X186183336Y-148862310D01*
X186133025Y-148854695D01*
X186072985Y-148847370D01*
X186007800Y-148840846D01*
X185942056Y-148835636D01*
X185880337Y-148832252D01*
X185832232Y-148831191D01*
X185718078Y-148831191D01*
X185698770Y-148889322D01*
X185682652Y-148929779D01*
X185663992Y-148965531D01*
X185655943Y-148977352D01*
X185632425Y-149007251D01*
X185662183Y-149046266D01*
X185702543Y-149111591D01*
X185723750Y-149174643D01*
X185726023Y-149232727D01*
X185709578Y-149283152D01*
X185674632Y-149323223D01*
X185638156Y-149344144D01*
X185585829Y-149357797D01*
X185526758Y-149360682D01*
X185483544Y-149355011D01*
X185470068Y-149353243D01*
X185424885Y-149335923D01*
X185421285Y-149333620D01*
X185371360Y-149287975D01*
X185367618Y-149281989D01*
X185415441Y-149281989D01*
X185419760Y-149299310D01*
X185446518Y-149317537D01*
X185450128Y-149319288D01*
X185483544Y-149332271D01*
X185502261Y-149329702D01*
X185510851Y-149309513D01*
X185512867Y-149290884D01*
X185511965Y-149265342D01*
X185500941Y-149255673D01*
X185486409Y-149254525D01*
X185464537Y-149250439D01*
X185457484Y-149242765D01*
X185447959Y-149232333D01*
X185439845Y-149231006D01*
X185424244Y-149239926D01*
X185422206Y-149247683D01*
X185418066Y-149273834D01*
X185415441Y-149281989D01*
X185367618Y-149281989D01*
X185335559Y-149230709D01*
X185324682Y-149195063D01*
X185320438Y-149181154D01*
X185313109Y-149135320D01*
X185294310Y-149174344D01*
X185255177Y-149233140D01*
X185201075Y-149284159D01*
X185139421Y-149321019D01*
X185112116Y-149331021D01*
X185041899Y-149343325D01*
X184980494Y-149335648D01*
X184975778Y-149333346D01*
X184925376Y-149308740D01*
X184875737Y-149261927D01*
X184859091Y-149233523D01*
X184889384Y-149233523D01*
X184902431Y-149250388D01*
X184924119Y-149254345D01*
X184939636Y-149263949D01*
X184944329Y-149272164D01*
X184960239Y-149286527D01*
X184975778Y-149289802D01*
X184993707Y-149285014D01*
X184993435Y-149267677D01*
X184995110Y-149245722D01*
X185005147Y-149238361D01*
X185017849Y-149227254D01*
X185011776Y-149215397D01*
X184990898Y-149208037D01*
X184981798Y-149207488D01*
X184957695Y-149200763D01*
X184947583Y-149189849D01*
X184933566Y-149173722D01*
X184915213Y-149177990D01*
X184897272Y-149201353D01*
X184896015Y-149203968D01*
X184889384Y-149233523D01*
X184859091Y-149233523D01*
X184840072Y-149201071D01*
X184819635Y-149131910D01*
X184815680Y-149060182D01*
X184829461Y-148991628D01*
X184843604Y-148961523D01*
X185266773Y-148961523D01*
X185273788Y-148983783D01*
X185290796Y-149019189D01*
X185292039Y-149021654D01*
X185324682Y-149086370D01*
X185338801Y-149047324D01*
X185366127Y-149003863D01*
X185409840Y-148970542D01*
X185462743Y-148952486D01*
X185491632Y-148943716D01*
X185512071Y-148924455D01*
X185527522Y-148897351D01*
X185541915Y-148866508D01*
X185550495Y-148844709D01*
X185551549Y-148840011D01*
X185540800Y-148835622D01*
X185512551Y-148832463D01*
X185484506Y-148831567D01*
X185472814Y-148831194D01*
X185471007Y-148831191D01*
X185424348Y-148832571D01*
X185391971Y-148838324D01*
X185364722Y-148850871D01*
X185344138Y-148864745D01*
X185311806Y-148891397D01*
X185285288Y-148918732D01*
X185278607Y-148927619D01*
X185268723Y-148945203D01*
X185266773Y-148961523D01*
X184843604Y-148961523D01*
X184847619Y-148952976D01*
X184883283Y-148914911D01*
X184934796Y-148887243D01*
X184996235Y-148871471D01*
X185061677Y-148869096D01*
X185125200Y-148881617D01*
X185126980Y-148882226D01*
X185159085Y-148892442D01*
X185177657Y-148893535D01*
X185191199Y-148884606D01*
X185200085Y-148874497D01*
X185215862Y-148852941D01*
X185221907Y-148840011D01*
X185211020Y-148836723D01*
X185180925Y-148833913D01*
X185135933Y-148831839D01*
X185080354Y-148830760D01*
X185066489Y-148830679D01*
X185002866Y-148829670D01*
X184942773Y-148827289D01*
X184892728Y-148823885D01*
X184859248Y-148819806D01*
X184857762Y-148819518D01*
X184823135Y-148814267D01*
X184803708Y-148817064D01*
X184793086Y-148827485D01*
X184740545Y-148890886D01*
X184675916Y-148936128D01*
X184602581Y-148961239D01*
X184555854Y-148965821D01*
X184494382Y-148956129D01*
X184445037Y-148927285D01*
X184444291Y-148926849D01*
X184406914Y-148879657D01*
X184383584Y-148816229D01*
X184375632Y-148739167D01*
X184376764Y-148729756D01*
X184404697Y-148729756D01*
X184406588Y-148739638D01*
X184412518Y-148761688D01*
X184413105Y-148785719D01*
X184413249Y-148805402D01*
X184421835Y-148813927D01*
X184445037Y-148814960D01*
X184460779Y-148814031D01*
X184497706Y-148811266D01*
X184514187Y-148807536D01*
X184513227Y-148800106D01*
X184497832Y-148786244D01*
X184494434Y-148783417D01*
X184475647Y-148764197D01*
X184473810Y-148745934D01*
X184480298Y-148729103D01*
X184486836Y-148702267D01*
X184482122Y-148683759D01*
X184469681Y-148678751D01*
X184454215Y-148690809D01*
X184431188Y-148710914D01*
X184418984Y-148717184D01*
X184404697Y-148729756D01*
X184376764Y-148729756D01*
X184384398Y-148666314D01*
X184409006Y-148608937D01*
X184446922Y-148567834D01*
X184495610Y-148543803D01*
X184552535Y-148537644D01*
X184615162Y-148550154D01*
X184680957Y-148582134D01*
X184737433Y-148625177D01*
X184793629Y-148675702D01*
X184881552Y-148658977D01*
X184930995Y-148651217D01*
X184994518Y-148643573D01*
X185062699Y-148637093D01*
X185107837Y-148633828D01*
X185246200Y-148625404D01*
X185215459Y-148580237D01*
X185193690Y-148552194D01*
X185176127Y-148541420D01*
X185159411Y-148543096D01*
X185119806Y-148551409D01*
X185067726Y-148556997D01*
X185013877Y-148559184D01*
X184968966Y-148557296D01*
X184958458Y-148555764D01*
X184920514Y-148540123D01*
X184911020Y-148536210D01*
X184867727Y-148499531D01*
X184848376Y-148471531D01*
X185260733Y-148471531D01*
X185265552Y-148487201D01*
X185284122Y-148510152D01*
X185298631Y-148525345D01*
X185360278Y-148577714D01*
X185421606Y-148607481D01*
X185484506Y-148615456D01*
X185504271Y-148613679D01*
X185562642Y-148605651D01*
X185533891Y-148548915D01*
X185512731Y-148512861D01*
X185491903Y-148493172D01*
X185466613Y-148484008D01*
X185442555Y-148474627D01*
X185419829Y-148465766D01*
X185375695Y-148434662D01*
X185342831Y-148397348D01*
X185334809Y-148382263D01*
X185320379Y-148347945D01*
X185301138Y-148392600D01*
X185285085Y-148426446D01*
X185269758Y-148453580D01*
X185267050Y-148457528D01*
X185260733Y-148471531D01*
X184848376Y-148471531D01*
X184834892Y-148452020D01*
X184822713Y-148420466D01*
X184815725Y-148359531D01*
X184822591Y-148291095D01*
X184841578Y-148225273D01*
X184847853Y-148213029D01*
X184881289Y-148213029D01*
X184891278Y-148219706D01*
X184891668Y-148219710D01*
X184902647Y-148229496D01*
X184908206Y-148243228D01*
X184920514Y-148263564D01*
X184936462Y-148263206D01*
X184948555Y-148242743D01*
X184961459Y-148224368D01*
X184973913Y-148221871D01*
X185000762Y-148218730D01*
X185009474Y-148214682D01*
X185019797Y-148204151D01*
X185009566Y-148192292D01*
X185008441Y-148191457D01*
X184995790Y-148174203D01*
X184995522Y-148164931D01*
X184994004Y-148147897D01*
X184978694Y-148143041D01*
X184956500Y-148151382D01*
X184948025Y-148157929D01*
X184921958Y-148177569D01*
X184901859Y-148188190D01*
X184885770Y-148199571D01*
X184881289Y-148213029D01*
X184847853Y-148213029D01*
X184863420Y-148182657D01*
X184908005Y-148135382D01*
X184965520Y-148104446D01*
X185030836Y-148091116D01*
X185098828Y-148096663D01*
X185145864Y-148112733D01*
X185192950Y-148142661D01*
X185240840Y-148186223D01*
X185281297Y-148235339D01*
X185296912Y-148260867D01*
X185309437Y-148283675D01*
X185314643Y-148286686D01*
X185316051Y-148270976D01*
X185316160Y-148266747D01*
X185326471Y-148218627D01*
X185351844Y-148167547D01*
X185373924Y-148139500D01*
X185410447Y-148139500D01*
X185414251Y-148155415D01*
X185422505Y-148179339D01*
X185432333Y-148200683D01*
X185442555Y-148202404D01*
X185456311Y-148191373D01*
X185476680Y-148176965D01*
X185488350Y-148173575D01*
X185504989Y-148173123D01*
X185511516Y-148159718D01*
X185511606Y-148134455D01*
X185507223Y-148108420D01*
X185499132Y-148096342D01*
X185498283Y-148096238D01*
X185479060Y-148100954D01*
X185452335Y-148112203D01*
X185426947Y-148125631D01*
X185411733Y-148136884D01*
X185410447Y-148139500D01*
X185373924Y-148139500D01*
X185387179Y-148122662D01*
X185405352Y-148106632D01*
X185432173Y-148088307D01*
X185457602Y-148078118D01*
X185490193Y-148073821D01*
X185533044Y-148073140D01*
X185605270Y-148079122D01*
X185658917Y-148096891D01*
X185696295Y-148127436D01*
X185710109Y-148148769D01*
X185726963Y-148205968D01*
X185722805Y-148268179D01*
X185698400Y-148331535D01*
X185664140Y-148381242D01*
X185632047Y-148419302D01*
X185654730Y-148451798D01*
X185673136Y-148483493D01*
X185691913Y-148523730D01*
X185697300Y-148537274D01*
X185717187Y-148590256D01*
X185813701Y-148587014D01*
X185860190Y-148584312D01*
X185923104Y-148579101D01*
X185995570Y-148572100D01*
X186070718Y-148564025D01*
X186141675Y-148555593D01*
X186201570Y-148547523D01*
X186221836Y-148544404D01*
X186225626Y-148541697D01*
X186223579Y-148534641D01*
X186214287Y-148521797D01*
X186196344Y-148501726D01*
X186168342Y-148472987D01*
X186128875Y-148434140D01*
X186076535Y-148383746D01*
X186009917Y-148320364D01*
X185927612Y-148242554D01*
X185918697Y-148234144D01*
X185841775Y-148159739D01*
X185779360Y-148094278D01*
X185727357Y-148032318D01*
X185681672Y-147968415D01*
X185638207Y-147897124D01*
X185592867Y-147813001D01*
X185574009Y-147775970D01*
X185495300Y-147600618D01*
X185434209Y-147423496D01*
X185390793Y-147246615D01*
X185365109Y-147071984D01*
X185358959Y-146939301D01*
X185440673Y-146939301D01*
X185451616Y-147120481D01*
X185483877Y-147301548D01*
X185537010Y-147480363D01*
X185610568Y-147654785D01*
X185704106Y-147822672D01*
X185759559Y-147905369D01*
X185819696Y-147982798D01*
X185890390Y-148062103D01*
X185968775Y-148140983D01*
X186051989Y-148217134D01*
X186137164Y-148288253D01*
X186221438Y-148352037D01*
X186301944Y-148406183D01*
X186375818Y-148448389D01*
X186440196Y-148476351D01*
X186483005Y-148486926D01*
X186533456Y-148493328D01*
X186409984Y-148405140D01*
X186348922Y-148359859D01*
X186281730Y-148307361D01*
X186217853Y-148255145D01*
X186179481Y-148222167D01*
X186135279Y-148178789D01*
X186577126Y-148178789D01*
X186578533Y-148180512D01*
X186585524Y-148178898D01*
X186586373Y-148172673D01*
X186582070Y-148162994D01*
X186578533Y-148164833D01*
X186577126Y-148178789D01*
X186135279Y-148178789D01*
X186038047Y-148083368D01*
X185914309Y-147932794D01*
X185807907Y-147769583D01*
X185751295Y-147657721D01*
X186499897Y-147657721D01*
X186500677Y-147763162D01*
X186506470Y-147865168D01*
X186516987Y-147959036D01*
X186531933Y-148040059D01*
X186551019Y-148103533D01*
X186555383Y-148113877D01*
X186573910Y-148155034D01*
X186565442Y-148096238D01*
X186562984Y-148067155D01*
X186560878Y-148018931D01*
X186559229Y-147955943D01*
X186558141Y-147882567D01*
X186557718Y-147803179D01*
X186557751Y-147772858D01*
X186558333Y-147680448D01*
X186559745Y-147605932D01*
X186562403Y-147543691D01*
X186566718Y-147488103D01*
X186573104Y-147433550D01*
X186581975Y-147374411D01*
X186590973Y-147320972D01*
X186605312Y-147242617D01*
X186621977Y-147158534D01*
X186639133Y-147077603D01*
X186654942Y-147008705D01*
X186658619Y-146993804D01*
X186695888Y-146865235D01*
X186743638Y-146730980D01*
X186799071Y-146597556D01*
X186859386Y-146471481D01*
X186921782Y-146359274D01*
X186950854Y-146313449D01*
X186976630Y-146274134D01*
X186996502Y-146242645D01*
X187007496Y-146223747D01*
X187008754Y-146220636D01*
X187001655Y-146225391D01*
X186983177Y-146243637D01*
X186960760Y-146267673D01*
X186891788Y-146354739D01*
X186823268Y-146462561D01*
X186756672Y-146588400D01*
X186693468Y-146729516D01*
X186644076Y-146857850D01*
X186621692Y-146928539D01*
X186598158Y-147017566D01*
X186574573Y-147119859D01*
X186552038Y-147230346D01*
X186531651Y-147343955D01*
X186514548Y-147455358D01*
X186504424Y-147553552D01*
X186499897Y-147657721D01*
X185751295Y-147657721D01*
X185718480Y-147592880D01*
X185645667Y-147401824D01*
X185589106Y-147195558D01*
X185548437Y-146973222D01*
X185523299Y-146733959D01*
X185518286Y-146649849D01*
X185510230Y-146485219D01*
X185484523Y-146585173D01*
X185451493Y-146760152D01*
X185440673Y-146939301D01*
X185358959Y-146939301D01*
X185357212Y-146901617D01*
X185367159Y-146737524D01*
X185395007Y-146581716D01*
X185440811Y-146436205D01*
X185504629Y-146303002D01*
X185531488Y-146259268D01*
X185561027Y-146217571D01*
X185595576Y-146174150D01*
X185631835Y-146132494D01*
X185666504Y-146096094D01*
X185696285Y-146068440D01*
X185717877Y-146053023D01*
X185727312Y-146052128D01*
X185735886Y-146067174D01*
X185750541Y-146097448D01*
X185768175Y-146136530D01*
X185768958Y-146138321D01*
X185810693Y-146230376D01*
X185864108Y-146342046D01*
X185928892Y-146472712D01*
X186004739Y-146621753D01*
X186091339Y-146788551D01*
X186117286Y-146837997D01*
X186163668Y-146926774D01*
X186210461Y-147017377D01*
X186255400Y-147105348D01*
X186296222Y-147186227D01*
X186330662Y-147255555D01*
X186356457Y-147308874D01*
X186357779Y-147311677D01*
X186431310Y-147467856D01*
X186439155Y-147417510D01*
X186447740Y-147373029D01*
X186462051Y-147310794D01*
X186480828Y-147235509D01*
X186502811Y-147151879D01*
X186526743Y-147064608D01*
X186551364Y-146978400D01*
X186575415Y-146897959D01*
X186593791Y-146839718D01*
X186655593Y-146667363D01*
X186722272Y-146516089D01*
X186794993Y-146383755D01*
X186874924Y-146268217D01*
X186955502Y-146175255D01*
X187066771Y-146072453D01*
X187180141Y-145992500D01*
X187296628Y-145934752D01*
X187378226Y-145907816D01*
X187424338Y-145896360D01*
X187450212Y-145893104D01*
X187458051Y-145899213D01*
G37*
%TD*%
D11*
%TO.C,P1*%
X95250000Y-80010000D03*
X95250000Y-82550000D03*
X95250000Y-85090000D03*
X95250000Y-87630000D03*
X95250000Y-90170000D03*
X95250000Y-92710000D03*
X95250000Y-95250000D03*
X95250000Y-97790000D03*
X95250000Y-100330000D03*
X95250000Y-102870000D03*
X95250000Y-105410000D03*
X95250000Y-107950000D03*
X95250000Y-110490000D03*
X95250000Y-113030000D03*
X95250000Y-115570000D03*
X95250000Y-118110000D03*
X95250000Y-120650000D03*
X95250000Y-123190000D03*
X95250000Y-125730000D03*
X95250000Y-128270000D03*
%TD*%
D12*
%TO.C,C40*%
X142073000Y-62738000D03*
D13*
X139573000Y-62738000D03*
%TD*%
D14*
%TO.C,P3*%
X182372000Y-80391000D03*
D15*
X182372000Y-82931000D03*
X182372000Y-85471000D03*
X182372000Y-88011000D03*
X182372000Y-90551000D03*
X182372000Y-93091000D03*
X182372000Y-95631000D03*
X182372000Y-98171000D03*
%TD*%
D13*
%TO.C,C8*%
X120690000Y-116840000D03*
X125690000Y-116840000D03*
%TD*%
%TO.C,C31*%
X174244000Y-102743000D03*
X179244000Y-102743000D03*
%TD*%
D14*
%TO.C,JP1*%
X143256000Y-71374000D03*
D15*
X145796000Y-71374000D03*
X143256000Y-73914000D03*
X145796000Y-73914000D03*
X143256000Y-76454000D03*
X145796000Y-76454000D03*
X143256000Y-78994000D03*
X145796000Y-78994000D03*
X143256000Y-81534000D03*
X145796000Y-81534000D03*
X143256000Y-84074000D03*
X145796000Y-84074000D03*
X143256000Y-86614000D03*
X145796000Y-86614000D03*
X143256000Y-89154000D03*
X145796000Y-89154000D03*
%TD*%
D13*
%TO.C,C32*%
X174204000Y-106680000D03*
X179204000Y-106680000D03*
%TD*%
D14*
%TO.C,P5*%
X141986000Y-106680000D03*
D15*
X141986000Y-109220000D03*
X141986000Y-111760000D03*
X141986000Y-114300000D03*
X141986000Y-116840000D03*
X141986000Y-119380000D03*
X141986000Y-121920000D03*
X141986000Y-124460000D03*
X141986000Y-127000000D03*
X141986000Y-129540000D03*
X141986000Y-132080000D03*
X141986000Y-134620000D03*
X141986000Y-137160000D03*
X141986000Y-139700000D03*
X141986000Y-142240000D03*
X141986000Y-144780000D03*
%TD*%
D13*
%TO.C,C2*%
X137302000Y-69048000D03*
X132302000Y-69048000D03*
%TD*%
%TO.C,C5*%
X124206000Y-83820000D03*
X119206000Y-83820000D03*
%TD*%
%TO.C,R1*%
X129413000Y-106680000D03*
D16*
X129413000Y-116840000D03*
%TD*%
D17*
%TO.C,U6*%
X166497000Y-62103000D03*
D18*
X166497000Y-64643000D03*
X166497000Y-67183000D03*
X166497000Y-69723000D03*
X166497000Y-72263000D03*
X166497000Y-74803000D03*
X166497000Y-77343000D03*
X166497000Y-79883000D03*
X166497000Y-82423000D03*
X166497000Y-84963000D03*
X174117000Y-84963000D03*
X174117000Y-82423000D03*
X174117000Y-79883000D03*
X174117000Y-77343000D03*
X174117000Y-74803000D03*
X174117000Y-72263000D03*
X174117000Y-69723000D03*
X174117000Y-67183000D03*
X174117000Y-64643000D03*
X174117000Y-62103000D03*
%TD*%
D17*
%TO.C,U8*%
X116499000Y-120650000D03*
D18*
X116499000Y-123190000D03*
X116499000Y-125730000D03*
X116499000Y-128270000D03*
X116499000Y-130810000D03*
X116499000Y-133350000D03*
X116499000Y-135890000D03*
X116499000Y-138430000D03*
X116499000Y-140970000D03*
X116499000Y-143510000D03*
X124119000Y-143510000D03*
X124119000Y-140970000D03*
X124119000Y-138430000D03*
X124119000Y-135890000D03*
X124119000Y-133350000D03*
X124119000Y-130810000D03*
X124119000Y-128270000D03*
X124119000Y-125730000D03*
X124119000Y-123190000D03*
X124119000Y-120650000D03*
%TD*%
D13*
%TO.C,C73*%
X180908000Y-59563000D03*
X185908000Y-59563000D03*
%TD*%
D14*
%TO.C,JP3*%
X175387000Y-115189000D03*
D15*
X177927000Y-115189000D03*
X175387000Y-117729000D03*
X177927000Y-117729000D03*
X175387000Y-120269000D03*
X177927000Y-120269000D03*
X175387000Y-122809000D03*
X177927000Y-122809000D03*
X175387000Y-125349000D03*
X177927000Y-125349000D03*
X175387000Y-127889000D03*
X177927000Y-127889000D03*
X175387000Y-130429000D03*
X177927000Y-130429000D03*
X175387000Y-132969000D03*
X177927000Y-132969000D03*
%TD*%
D19*
%TO.C,U1*%
X128778000Y-125730000D03*
D20*
X128778000Y-128270000D03*
X128778000Y-130810000D03*
X128778000Y-133350000D03*
X128778000Y-135890000D03*
X128778000Y-138430000D03*
X128778000Y-140970000D03*
X128778000Y-143510000D03*
X136398000Y-143510000D03*
X136398000Y-140970000D03*
X136398000Y-138430000D03*
X136398000Y-135890000D03*
X136398000Y-133350000D03*
X136398000Y-130810000D03*
X136398000Y-128270000D03*
X136398000Y-125730000D03*
%TD*%
D17*
%TO.C,U4*%
X150876000Y-66294000D03*
D18*
X150876000Y-68834000D03*
X150876000Y-71374000D03*
X150876000Y-73914000D03*
X150876000Y-76454000D03*
X150876000Y-78994000D03*
X150876000Y-81534000D03*
X150876000Y-84074000D03*
X150876000Y-86614000D03*
X150876000Y-89154000D03*
X158496000Y-89154000D03*
X158496000Y-86614000D03*
X158496000Y-84074000D03*
X158496000Y-81534000D03*
X158496000Y-78994000D03*
X158496000Y-76454000D03*
X158496000Y-73914000D03*
X158496000Y-71374000D03*
X158496000Y-68834000D03*
X158496000Y-66294000D03*
%TD*%
D19*
%TO.C,U7*%
X162707000Y-59558000D03*
D20*
X162707000Y-67178000D03*
X162707000Y-69718000D03*
X162707000Y-72258000D03*
X162707000Y-74798000D03*
X162707000Y-77338000D03*
X162707000Y-79878000D03*
X162707000Y-82418000D03*
X162707000Y-84958000D03*
X162707000Y-87498000D03*
X162707000Y-62098000D03*
X177947000Y-87498000D03*
X177947000Y-64638000D03*
X177947000Y-84958000D03*
X177947000Y-82418000D03*
X177947000Y-79878000D03*
X177947000Y-77338000D03*
X177947000Y-74798000D03*
X177947000Y-72258000D03*
X177947000Y-69718000D03*
X177947000Y-67178000D03*
X162707000Y-64638000D03*
X177947000Y-59558000D03*
X177947000Y-62098000D03*
%TD*%
D14*
%TO.C,P2*%
X187452000Y-80391000D03*
D15*
X187452000Y-82931000D03*
X187452000Y-85471000D03*
X187452000Y-88011000D03*
X187452000Y-90551000D03*
X187452000Y-93091000D03*
X187452000Y-95631000D03*
X187452000Y-98171000D03*
%TD*%
D13*
%TO.C,C75*%
X158897000Y-58928000D03*
X153897000Y-58928000D03*
%TD*%
D17*
%TO.C,U5*%
X116546000Y-87503000D03*
D18*
X116546000Y-90043000D03*
X116546000Y-92583000D03*
X116546000Y-95123000D03*
X116546000Y-97663000D03*
X116546000Y-100203000D03*
X116546000Y-102743000D03*
X116546000Y-105283000D03*
X116546000Y-107823000D03*
X116546000Y-110363000D03*
X124166000Y-110363000D03*
X124166000Y-107823000D03*
X124166000Y-105283000D03*
X124166000Y-102743000D03*
X124166000Y-100203000D03*
X124166000Y-97663000D03*
X124166000Y-95123000D03*
X124166000Y-92583000D03*
X124166000Y-90043000D03*
X124166000Y-87503000D03*
%TD*%
D14*
%TO.C,JP2*%
X177800000Y-139319000D03*
D15*
X177800000Y-141859000D03*
X177800000Y-144399000D03*
%TD*%
D13*
%TO.C,C1*%
X136358000Y-121920000D03*
X131358000Y-121920000D03*
%TD*%
%TO.C,C4*%
X158857000Y-62484000D03*
X153857000Y-62484000D03*
%TD*%
D14*
%TO.C,P10*%
X187452000Y-65659000D03*
D15*
X187452000Y-68199000D03*
X187452000Y-70739000D03*
X187452000Y-73279000D03*
%TD*%
D19*
%TO.C,U2*%
X129667000Y-72390000D03*
D20*
X129667000Y-74930000D03*
X129667000Y-77470000D03*
X129667000Y-80010000D03*
X129667000Y-82550000D03*
X129667000Y-85090000D03*
X129667000Y-87630000D03*
X137287000Y-87630000D03*
X137287000Y-85090000D03*
X137287000Y-82550000D03*
X137287000Y-80010000D03*
X137287000Y-77470000D03*
X137287000Y-74930000D03*
X137287000Y-72390000D03*
%TD*%
D21*
%TO.C,U3*%
X155858000Y-96650000D03*
D22*
X156158000Y-99680000D03*
X161008000Y-99680000D03*
D21*
X161308000Y-96650000D03*
D15*
X149693000Y-96520000D03*
D23*
X148793000Y-96520000D03*
D15*
X149693000Y-99060000D03*
D23*
X148793000Y-99060000D03*
D14*
X149693000Y-101600000D03*
D23*
X148793000Y-101600000D03*
D15*
X149693000Y-104140000D03*
D23*
X148793000Y-104140000D03*
D15*
X149693000Y-106680000D03*
D23*
X148793000Y-106680000D03*
D15*
X149693000Y-109220000D03*
D23*
X148793000Y-109220000D03*
D15*
X149693000Y-111760000D03*
D23*
X148793000Y-111760000D03*
D14*
X149693000Y-114300000D03*
D23*
X148793000Y-114300000D03*
D15*
X149693000Y-116840000D03*
D23*
X148793000Y-116840000D03*
D15*
X149693000Y-119380000D03*
D23*
X148793000Y-119380000D03*
D15*
X149693000Y-121920000D03*
D23*
X148793000Y-121920000D03*
D15*
X149693000Y-124460000D03*
D23*
X148793000Y-124460000D03*
D14*
X149693000Y-127000000D03*
D23*
X148793000Y-127000000D03*
D15*
X149693000Y-129540000D03*
D23*
X148793000Y-129540000D03*
D15*
X149693000Y-132080000D03*
D23*
X148793000Y-132080000D03*
D15*
X149693000Y-134620000D03*
D23*
X148793000Y-134620000D03*
D15*
X149693000Y-137160000D03*
D23*
X148793000Y-137160000D03*
D14*
X149693000Y-139700000D03*
D23*
X148793000Y-139700000D03*
D15*
X149693000Y-142240000D03*
D23*
X148793000Y-142240000D03*
D15*
X149693000Y-144780000D03*
D23*
X148793000Y-144780000D03*
D15*
X167473000Y-144780000D03*
D23*
X168373000Y-144780000D03*
D15*
X167473000Y-142240000D03*
D23*
X168373000Y-142240000D03*
D14*
X167473000Y-139700000D03*
D23*
X168373000Y-139700000D03*
D15*
X167473000Y-137160000D03*
D23*
X168373000Y-137160000D03*
D15*
X167473000Y-134620000D03*
D23*
X168373000Y-134620000D03*
D15*
X167473000Y-132080000D03*
D23*
X168373000Y-132080000D03*
D15*
X167473000Y-129540000D03*
D23*
X168373000Y-129540000D03*
D14*
X167473000Y-127000000D03*
D23*
X168373000Y-127000000D03*
D15*
X167473000Y-124460000D03*
D23*
X168373000Y-124460000D03*
D15*
X167473000Y-121920000D03*
D23*
X168373000Y-121920000D03*
D15*
X167473000Y-119380000D03*
D23*
X168373000Y-119380000D03*
D15*
X167473000Y-116840000D03*
D23*
X168373000Y-116840000D03*
D14*
X167473000Y-114300000D03*
D23*
X168373000Y-114300000D03*
D15*
X167473000Y-111760000D03*
D23*
X168373000Y-111760000D03*
D15*
X167473000Y-109220000D03*
D23*
X168373000Y-109220000D03*
D15*
X167473000Y-106680000D03*
D23*
X168373000Y-106680000D03*
D15*
X167473000Y-104140000D03*
D23*
X168373000Y-104140000D03*
D14*
X167473000Y-101600000D03*
D23*
X168373000Y-101600000D03*
D15*
X167473000Y-99060000D03*
D23*
X168373000Y-99060000D03*
D15*
X167473000Y-96520000D03*
D23*
X168373000Y-96520000D03*
D15*
X159167100Y-126250000D03*
D14*
X161707100Y-126250000D03*
D15*
X164247100Y-126250000D03*
%TD*%
D14*
%TO.C,P4*%
X185801000Y-105283000D03*
D15*
X185801000Y-107823000D03*
X185801000Y-110363000D03*
X185801000Y-112903000D03*
X185801000Y-115443000D03*
X185801000Y-117983000D03*
X185801000Y-120523000D03*
X185801000Y-123063000D03*
X185801000Y-125603000D03*
X185801000Y-128143000D03*
X185801000Y-130683000D03*
X185801000Y-133223000D03*
X185801000Y-135763000D03*
X185801000Y-138303000D03*
X185801000Y-140843000D03*
X185801000Y-143383000D03*
%TD*%
D13*
%TO.C,R2*%
X136398000Y-106680000D03*
D16*
X136398000Y-116840000D03*
%TD*%
G36*
X99382121Y-77660002D02*
G01*
X99428614Y-77713658D01*
X99440000Y-77766000D01*
X99440000Y-130514000D01*
X99419998Y-130582121D01*
X99366342Y-130628614D01*
X99314000Y-130640000D01*
X92695506Y-130640000D01*
X92684524Y-130639521D01*
X92483920Y-130621970D01*
X92462291Y-130618156D01*
X92273123Y-130567469D01*
X92252484Y-130559957D01*
X92074986Y-130477188D01*
X92055966Y-130466206D01*
X91895544Y-130353878D01*
X91878719Y-130339760D01*
X91740239Y-130201280D01*
X91726121Y-130184455D01*
X91613793Y-130024033D01*
X91602811Y-130005013D01*
X91520042Y-129827515D01*
X91512530Y-129806876D01*
X91461843Y-129617708D01*
X91458029Y-129596078D01*
X91440479Y-129395475D01*
X91440000Y-129384494D01*
X91440000Y-78895505D01*
X91440479Y-78884524D01*
X91458029Y-78683921D01*
X91461843Y-78662291D01*
X91512530Y-78473123D01*
X91520042Y-78452484D01*
X91602811Y-78274986D01*
X91613793Y-78255966D01*
X91726121Y-78095544D01*
X91740239Y-78078719D01*
X91878719Y-77940239D01*
X91895544Y-77926121D01*
X92055966Y-77813793D01*
X92074986Y-77802811D01*
X92252484Y-77720042D01*
X92273123Y-77712530D01*
X92462291Y-77661843D01*
X92483921Y-77658029D01*
X92684525Y-77640479D01*
X92695506Y-77640000D01*
X99314000Y-77640000D01*
X99382121Y-77660002D01*
G37*
G36*
X103447121Y-134640002D02*
G01*
X103493614Y-134693658D01*
X103505000Y-134746000D01*
X103505000Y-141885113D01*
X103484998Y-141953234D01*
X103431342Y-141999727D01*
X103361068Y-142009831D01*
X103296488Y-141980337D01*
X103271568Y-141950948D01*
X103153530Y-141758329D01*
X103153522Y-141758318D01*
X103000660Y-141579339D01*
X102821681Y-141426477D01*
X102821679Y-141426476D01*
X102620984Y-141303489D01*
X102403523Y-141213414D01*
X102174651Y-141158467D01*
X101939998Y-141140000D01*
X95148258Y-141140000D01*
X95131812Y-141138922D01*
X95027037Y-141125128D01*
X94995265Y-141116615D01*
X94905326Y-141079361D01*
X94876839Y-141062914D01*
X94799606Y-141003650D01*
X94776349Y-140980393D01*
X94717085Y-140903160D01*
X94700638Y-140874673D01*
X94663384Y-140784734D01*
X94654871Y-140752961D01*
X94641078Y-140648187D01*
X94640000Y-140631742D01*
X94640000Y-135148257D01*
X94641078Y-135131812D01*
X94654871Y-135027038D01*
X94663384Y-134995265D01*
X94700638Y-134905326D01*
X94717085Y-134876839D01*
X94776349Y-134799606D01*
X94799606Y-134776349D01*
X94876839Y-134717085D01*
X94905326Y-134700638D01*
X94995265Y-134663384D01*
X95027038Y-134654871D01*
X95131813Y-134641078D01*
X95148258Y-134640000D01*
X100654054Y-134640000D01*
X100685408Y-134622879D01*
X100712191Y-134620000D01*
X103379000Y-134620000D01*
X103447121Y-134640002D01*
G37*
G36*
X103459454Y-66297916D02*
G01*
X103499108Y-66356807D01*
X103505000Y-66394886D01*
X103505000Y-73534000D01*
X103484998Y-73602121D01*
X103431342Y-73648614D01*
X103379000Y-73660000D01*
X100712191Y-73660000D01*
X100644077Y-73640000D01*
X95148258Y-73640000D01*
X95131812Y-73638922D01*
X95027037Y-73625128D01*
X94995265Y-73616615D01*
X94905326Y-73579361D01*
X94876839Y-73562914D01*
X94799606Y-73503650D01*
X94776349Y-73480393D01*
X94717085Y-73403160D01*
X94700638Y-73374673D01*
X94663384Y-73284734D01*
X94654871Y-73252961D01*
X94641078Y-73148187D01*
X94640000Y-73131742D01*
X94640000Y-67648257D01*
X94641078Y-67631812D01*
X94654871Y-67527038D01*
X94663384Y-67495265D01*
X94700638Y-67405326D01*
X94717085Y-67376839D01*
X94776349Y-67299606D01*
X94799606Y-67276349D01*
X94876839Y-67217085D01*
X94905326Y-67200638D01*
X94995265Y-67163384D01*
X95027038Y-67154871D01*
X95131813Y-67141078D01*
X95148258Y-67140000D01*
X101939998Y-67140000D01*
X102174651Y-67121532D01*
X102403523Y-67066585D01*
X102620984Y-66976510D01*
X102821679Y-66853523D01*
X102821681Y-66853522D01*
X103000660Y-66700660D01*
X103153522Y-66521681D01*
X103153523Y-66521679D01*
X103271567Y-66329051D01*
X103324215Y-66281420D01*
X103394256Y-66269813D01*
X103459454Y-66297916D01*
G37*
M02*
